<svg xmlns="http://www.w3.org/2000/svg" viewBox="0 0 556 114" fill-rule="evenodd" clip-rule="evenodd" stroke-linejoin="round" stroke-miterlimit="2"><path fill="#ebebeb" d="M30.911 17.183h8.549v8.547H30.91zM30.911 27.19h8.549v8.548H30.91zM30.911 37.183h8.549v8.547H30.91zM30.911 47.19h8.549v8.548H30.91zM30.911 57.183h8.549v8.547H30.91zM30.911 67.19h8.549v8.548H30.91zM30.911 77.183h8.549v8.547H30.91zM40.95 17.183h8.549v8.547h-8.55zM40.95 27.19h8.549v8.548h-8.55zM50.911 27.183h8.549v8.547H50.91z"/><path fill="#2faf30" d="M40.911 37.19h8.549v8.548H40.91z"/><path fill="#ebebeb" d="M40.95 47.19h8.549v8.548h-8.55z"/><path fill="#2faf30" d="M40.911 47.183h8.549v8.547H40.91z"/><path fill="#107618" d="M40.911 47.19h8.549v8.548H40.91z"/><path fill="#ebebeb" d="M40.95 57.183h8.549v8.547h-8.55zM40.95 67.19h8.549v8.548h-8.55z"/><path fill="#107618" d="M40.911 57.183h8.549v8.547H40.91z"/><path fill="#2faf30" d="M40.911 67.19h8.549v8.548H40.91z"/><path fill="#ebebeb" d="M40.95 77.183h8.549v8.547h-8.55z"/><path fill="#107618" d="M40.911 77.183h8.549v8.547H40.91z"/><path fill="#ebebeb" d="M60.95 27.183h8.549v8.547h-8.55zM50.95 37.19h8.549v8.548h-8.55zM70.911 27.183h8.549v8.547H70.91z"/><path fill="#2faf30" d="M60.911 37.19h8.549v8.548H60.91z"/><path fill="#107618" d="M50.95 47.183h8.549v8.547h-8.55z"/><path fill="#ebebeb" d="M60.911 47.183h8.549v8.547H60.91z"/><path fill="#ebebeb" d="M60.911 47.19h8.549v8.548H60.91zM50.95 57.183h8.549v8.547h-8.55zM50.95 67.19h8.549v8.548h-8.55zM60.911 57.183h8.549v8.547H60.91zM60.911 67.19h8.549v8.548H60.91zM50.95 77.183h8.549v8.547h-8.55zM60.911 77.183h8.549v8.547H60.91z"/><path fill="#cbe969" d="M70.911 37.19h8.549v8.548H70.91z"/><path fill="#ebebeb" d="M70.911 47.183h8.549v8.547H70.91z"/><path fill="#ebebeb" d="M70.911 47.19h8.549v8.548H70.91zM70.911 57.183h8.549v8.547H70.91zM70.911 67.19h8.549v8.548H70.91zM70.911 77.183h8.549v8.547H70.91zM80.95 27.183h8.549v8.547h-8.55zM80.95 37.19h8.549v8.548h-8.55zM90.911 27.183h8.549v8.547H90.91zM90.911 37.19h8.549v8.548H90.91z"/><path fill="#2faf30" d="M80.95 47.183h8.549v8.547h-8.55z"/><path fill="#107618" d="M80.95 47.19h8.549v8.548h-8.55z"/><path fill="#ebebeb" d="M90.911 47.183h8.549v8.547H90.91z"/><path fill="#ebebeb" d="M90.911 47.19h8.549v8.548H90.91z"/><path fill="#2faf30" d="M80.95 57.183h8.549v8.547h-8.55z"/><path fill="#6ace4e" d="M80.95 67.19h8.549v8.548h-8.55z"/><path fill="#ebebeb" d="M90.911 57.183h8.549v8.547H90.91zM90.911 67.19h8.549v8.548H90.91z"/><path fill="#cbe969" d="M80.95 77.183h8.549v8.547h-8.55z"/><path fill="#ebebeb" d="M90.911 77.183h8.549v8.547H90.91zM100.95 27.183h8.549v8.547h-8.55zM100.95 37.19h8.549v8.548h-8.55zM110.911 27.183h8.549v8.547h-8.549z"/><path fill="#6ace4e" d="M110.911 37.19h8.549v8.548h-8.549z"/><path fill="#2faf30" d="M100.95 47.183h8.549v8.547h-8.55z"/><path fill="#6ace4e" d="M100.95 47.19h8.549v8.55h-8.55z"/><path fill="#ebebeb" d="M110.912 47.183h8.548v8.547h-8.548z"/><path fill="#ebebeb" d="M110.911 47.19h8.549v8.548h-8.549z"/><path fill="#107618" d="M100.95 57.183h8.549v8.547h-8.55zM100.95 67.19h8.549v8.548h-8.55z"/><path fill="#6ace4e" d="M110.911 57.183h8.549v8.547h-8.549z"/><path fill="#ebebeb" d="M110.911 67.19h8.549v8.548h-8.549zM100.95 77.183h8.549v8.547h-8.55z"/><path fill="#107618" d="M110.911 77.183h8.549v8.547h-8.549z"/><path fill="#ebebeb" d="M120.95 27.183h8.548v8.547h-8.548z"/><path fill="#2faf30" d="M120.95 37.19h8.548v8.548h-8.548z"/><path fill="#ebebeb" d="M130.91 27.183h8.55v8.547h-8.55z"/><path fill="#107618" d="M130.91 37.19h8.55v8.548h-8.55z"/><path fill="#ebebeb" d="M120.95 47.183h8.548v8.547h-8.548z"/><path fill="#ebebeb" d="M120.95 47.19h8.548v8.548h-8.548zM130.91 47.183h8.55v8.547h-8.55z"/><path fill="#ebebeb" d="M130.91 47.19h8.55v8.548h-8.55z"/><path fill="#107618" d="M120.95 57.183h8.548v8.547h-8.548z"/><path fill="#ebebeb" d="M120.95 67.19h8.548v8.548h-8.548z"/><path fill="#107618" d="M130.91 57.183h8.55v8.547h-8.55z"/><path fill="#ebebeb" d="M130.91 67.19h8.55v8.548h-8.55z"/><path fill="#2faf30" d="M120.95 77.183h8.548v8.547h-8.548z"/><path fill="#6ace4f" d="M130.91 77.183h8.55v8.547h-8.55z"/><path fill="#ebebeb" d="M140.95 27.183h8.548v8.547h-8.548zM50.911 17.183h8.549v8.547H50.91zM60.95 17.183h8.549v8.547h-8.55zM70.911 17.183h8.549v8.547H70.91zM80.95 17.183h8.549v8.547h-8.55zM90.911 17.183h8.549v8.547H90.91zM100.95 17.183h8.549v8.547h-8.55zM110.911 17.183h8.549v8.547h-8.549zM120.95 17.183h8.548v8.547h-8.548zM130.91 17.183h8.55v8.547h-8.55zM140.95 17.183h8.548v8.547h-8.548zM140.95 37.19h8.548v8.548h-8.548zM150.91 17.183h8.55v8.547h-8.55zM150.91 27.19h8.55v8.548h-8.55z"/><path fill="#2faf30" d="M140.95 47.183h8.548v8.547h-8.548z"/><path fill="#2faf30" d="M140.95 47.19h8.548v8.548h-8.548z"/><path fill="#ebebeb" d="M150.91 37.183h8.55v8.547h-8.55zM150.91 47.19h8.55v8.548h-8.55z"/><path fill="#cbe969" d="M140.95 57.183h8.548v8.547h-8.548z"/><path fill="#ebebeb" d="M140.95 67.19h8.548v8.548h-8.548zM150.91 57.183h8.55v8.547h-8.55zM150.91 67.19h8.55v8.548h-8.55zM140.95 77.183h8.548v8.547h-8.548zM430.95 37.19h8.548v8.548h-8.549z"/><path fill="#107618" d="M440.91 37.19h8.549v8.548h-8.549z"/><path fill="#2faf30" d="M430.95 47.183h8.548v8.547h-8.549z"/><path fill="#cbe969" d="M430.95 47.19h8.548v8.55h-8.549z"/><path fill="#ebebeb" d="M440.911 47.183h8.548v8.547h-8.548z"/><path fill="#ebebeb" d="M440.91 47.19h8.549v8.548h-8.549z"/><path fill="#107618" d="M430.95 57.183h8.548v8.547h-8.549z"/><path fill="#2faf30" d="M430.95 67.19h8.548v8.548h-8.549z"/><path fill="#107618" d="M440.91 57.183h8.549v8.547h-8.549z"/><path fill="#ebebeb" d="M440.91 67.19h8.549v8.548h-8.549zM430.95 77.183h8.548v8.547h-8.549z"/><path fill="#2faf30" d="M440.91 77.183h8.549v8.547h-8.549zM450.95 37.19h8.548v8.548h-8.549z"/><path fill="#107618" d="M460.91 37.19h8.549v8.548h-8.549z"/><path fill="#ebebeb" d="M450.95 47.183h8.548v8.547h-8.549z"/><path fill="#ebebeb" d="M450.95 47.19h8.548v8.548h-8.549zM460.91 47.183h8.549v8.547h-8.549z"/><path fill="#ebebeb" d="M460.91 47.19h8.549v8.548h-8.549z"/><path fill="#2faf30" d="M450.95 57.183h8.548v8.547h-8.549z"/><path fill="#ebebeb" d="M450.95 67.19h8.548v8.548h-8.549z"/><path fill="#6ace4e" d="M460.91 57.183h8.549v8.547h-8.549z"/><path fill="#ebebeb" d="M460.91 67.19h8.549v8.548h-8.549z"/><path fill="#cbe969" d="M450.95 77.183h8.548v8.547h-8.549z"/><path fill="#6ace4e" d="M460.91 77.183h8.549v8.547h-8.549z"/><path fill="#ebebeb" d="M470.95 37.19h8.548v8.548h-8.549z"/><path fill="#2faf30" d="M470.95 47.183h8.548v8.547h-8.549z"/><path fill="#2faf30" d="M470.95 47.19h8.548v8.548h-8.549z"/><path fill="#cbe969" d="M470.95 57.183h8.548v8.547h-8.549z"/><path fill="#ebebeb" d="M470.95 67.19h8.548v8.548h-8.549zM470.95 77.183h8.548v8.547h-8.549zM150.91 77.183h8.55v8.547h-8.55z"/><path fill="#2faf30" d="M160.95 17.183h8.548v8.547h-8.548z"/><path fill="#107618" d="M160.95 27.19h8.548v8.548h-8.548z"/><path fill="#ebebeb" d="M170.91 17.183h8.55v8.547h-8.55zM170.91 27.19h8.55v8.548h-8.55z"/><path fill="#107618" d="M160.95 37.183h8.548v8.547h-8.548z"/><path fill="#6ace4f" d="M160.95 47.19h8.548v8.548h-8.548z"/><path fill="#ebebeb" d="M170.91 37.183h8.55v8.547h-8.55zM170.91 47.19h8.55v8.548h-8.55z"/><path fill="#2daf2f" d="M160.95 57.183h8.548v8.547h-8.548z"/><path fill="#107618" d="M160.95 67.19h8.548v8.548h-8.548z"/><path fill="#ebebeb" d="M170.91 57.183h8.55v8.547h-8.55zM170.91 67.19h8.55v8.548h-8.55z"/><path fill="#cbe969" d="M160.95 77.183h8.548v8.547h-8.548z"/><path fill="#ebebeb" d="M170.91 77.183h8.55v8.547h-8.55zM180.95 17.183h8.548v8.547h-8.548zM180.95 27.19h8.548v8.548h-8.548zM190.91 17.183h8.55v8.547h-8.55zM190.91 27.19h8.55v8.548h-8.55zM180.95 37.183h8.548v8.547h-8.548zM180.95 47.19h8.548v8.548h-8.548z"/><path fill="#107618" d="M190.91 37.183h8.55v8.547h-8.55z"/><path fill="#ebebeb" d="M190.91 47.19h8.55v8.548h-8.55zM180.95 57.183h8.548v8.547h-8.548z"/><path fill="#6ace4e" d="M180.95 67.19h8.548v8.548h-8.548zM190.91 57.183h8.55v8.547h-8.55z"/><path fill="#ebebeb" d="M190.91 67.19h8.55v8.548h-8.55zM180.95 77.183h8.548v8.547h-8.548z"/><path fill="#107618" d="M190.91 77.183h8.55v8.547h-8.55z"/><path fill="#ebebeb" d="M200.95 17.183h8.548v8.547h-8.548zM200.95 27.19h8.548v8.548h-8.548zM210.91 17.183h8.55v8.547h-8.55zM210.91 27.19h8.55v8.548h-8.55z"/><path fill="#2daf2f" d="M200.95 37.183h8.548v8.547h-8.548z"/><path fill="#ebebeb" d="M200.95 47.19h8.548v8.548h-8.548z"/><path fill="#6ace4f" d="M210.91 37.183h8.55v8.547h-8.55z"/><path fill="#ebebeb" d="M210.91 47.19h8.55v8.548h-8.55z"/><path fill="#107618" d="M200.95 57.183h8.548v8.547h-8.548z"/><path fill="#ebebeb" d="M200.95 67.19h8.548v8.548h-8.548z"/><path fill="#cbe969" d="M210.91 57.183h8.55v8.547h-8.55z"/><path fill="#ebebeb" d="M210.91 67.19h8.55v8.548h-8.55z"/><path fill="#2faf30" d="M200.95 77.183h8.548v8.547h-8.548z"/><path fill="#107618" d="M210.91 77.183h8.55v8.547h-8.55z"/><path fill="#ebebeb" d="M220.95 17.183h8.548v8.547h-8.549zM220.95 27.19h8.548v8.548h-8.549zM230.91 17.183h8.55v8.547h-8.55zM230.91 27.19h8.55v8.548h-8.55zM220.95 37.183h8.548v8.547h-8.549z"/><path fill="#107618" d="M220.95 47.19h8.548v8.548h-8.549z"/><path fill="#ebebeb" d="M230.91 37.183h8.55v8.547h-8.55zM230.91 47.19h8.55v8.548h-8.55z"/><path fill="#cbe969" d="M220.95 57.183h8.548v8.547h-8.549z"/><path fill="#2faf30" d="M220.95 67.19h8.548v8.548h-8.549z"/><path fill="#ebebeb" d="M230.91 57.183h8.55v8.547h-8.55zM230.91 67.19h8.55v8.548h-8.55z"/><path fill="#6ace4f" d="M220.95 77.183h8.548v8.547h-8.549z"/><path fill="#ebebeb" d="M230.91 77.183h8.55v8.547h-8.55z"/><path fill="#cbe969" d="M240.95 17.183h8.548v8.547h-8.549z"/><path fill="#6ace4e" d="M240.95 27.19h8.548v8.548h-8.549z"/><path fill="#ebebeb" d="M250.91 17.183h8.55v8.547h-8.55zM250.91 27.19h8.55v8.548h-8.55z"/><path fill="#107618" d="M240.95 37.183h8.548v8.547h-8.549zM240.95 47.19h8.548v8.548h-8.549z"/><path fill="#cbe969" d="M250.91 37.183h8.55v8.547h-8.55z"/><path fill="#ebebeb" d="M250.91 47.19h8.55v8.548h-8.55z"/><path fill="#2faf30" d="M240.95 57.183h8.548v8.547h-8.549z"/><path fill="#107618" d="M240.95 67.19h8.548v8.548h-8.549z"/><path fill="#ebebeb" d="M250.91 57.183h8.55v8.547h-8.55zM250.91 67.19h8.55v8.548h-8.55z"/><path fill="#6ace4e" d="M240.95 77.183h8.548v8.547h-8.549z"/><path fill="#2faf30" d="M250.91 77.183h8.55v8.547h-8.55z"/><path fill="#ebebeb" d="M260.95 17.183h8.548v8.547h-8.549zM260.95 27.19h8.548v8.548h-8.549zM270.91 17.183h8.55v8.547h-8.55zM270.91 27.19h8.55v8.548h-8.55z"/><path fill="#2faf30" d="M260.95 37.183h8.548v8.547h-8.549z"/><path fill="#ebebeb" d="M260.95 47.19h8.548v8.548h-8.549z"/><path fill="#107618" d="M270.91 37.183h8.55v8.547h-8.55z"/><path fill="#ebebeb" d="M270.91 47.19h8.55v8.548h-8.55zM260.95 57.183h8.548v8.547h-8.549zM260.95 67.19h8.548v8.548h-8.549zM270.91 57.183h8.55v8.547h-8.55zM270.91 67.19h8.55v8.548h-8.55z"/><path fill="#107618" d="M260.95 77.183h8.548v8.547h-8.549z"/><path fill="#cbe969" d="M270.91 77.183h8.55v8.547h-8.55z"/><path fill="#ebebeb" d="M280.95 17.183h8.548v8.547h-8.549zM280.95 27.19h8.548v8.548h-8.549zM290.91 17.183h8.55v8.547h-8.55zM290.91 27.19h8.55v8.548h-8.55zM280.95 37.183h8.548v8.547h-8.549z"/><path fill="#107618" d="M280.95 47.19h8.548v8.548h-8.549z"/><path fill="#ebebeb" d="M290.91 37.183h8.55v8.547h-8.55zM290.91 47.19h8.55v8.548h-8.55z"/><path fill="#2faf30" d="M280.95 57.183h8.548v8.547h-8.549z"/><path fill="#6ace4e" d="M280.95 67.19h8.548v8.548h-8.549z"/><path fill="#ebebeb" d="M290.91 57.183h8.55v8.547h-8.55zM290.91 67.19h8.55v8.548h-8.55zM280.95 77.183h8.548v8.547h-8.549zM290.91 77.183h8.55v8.547h-8.55zM300.95 17.183h8.548v8.547h-8.549zM300.95 27.19h8.548v8.548h-8.549zM310.91 17.183h8.55v8.547h-8.55zM310.91 27.19h8.55v8.548h-8.55zM300.95 37.183h8.548v8.547h-8.549z"/><path fill="#107618" d="M300.95 47.19h8.548v8.548h-8.549z"/><path fill="#6ace4f" d="M310.91 37.183h8.55v8.547h-8.55z"/><path fill="#ebebeb" d="M310.91 47.19h8.55v8.548h-8.55zM300.95 57.183h8.548v8.547h-8.549zM300.95 67.19h8.548v8.548h-8.549z"/><path fill="#107618" d="M310.91 57.183h8.55v8.547h-8.55z"/><path fill="#ebebeb" d="M310.91 67.19h8.55v8.548h-8.55z"/><path fill="#cbe969" d="M300.95 77.183h8.548v8.547h-8.549z"/><path fill="#2faf30" d="M310.91 77.183h8.55v8.547h-8.55z"/><path fill="#ebebeb" d="M320.95 17.183h8.548v8.547h-8.549zM320.95 27.19h8.548v8.548h-8.549zM330.91 17.183h8.55v8.547h-8.55zM330.91 27.19h8.55v8.548h-8.55z"/><path fill="#cbe969" d="M320.95 37.183h8.548v8.547h-8.549z"/><path fill="#ebebeb" d="M320.95 47.19h8.548v8.548h-8.549z"/><path fill="#6ace4f" d="M330.91 37.183h8.55v8.547h-8.55z"/><path fill="#ebebeb" d="M330.91 47.19h8.55v8.548h-8.55z"/><path fill="#2faf30" d="M320.95 57.183h8.548v8.547h-8.549z"/><path fill="#ebebeb" d="M320.95 67.19h8.548v8.548h-8.549zM330.91 57.183h8.55v8.547h-8.55z"/><path fill="#107618" d="M330.91 67.19h8.55v8.548h-8.55z"/><path fill="#6ace4f" d="M320.95 77.183h8.548v8.547h-8.549z"/><path fill="#ebebeb" d="M330.91 77.183h8.55v8.547h-8.55zM340.95 17.183h8.548v8.547h-8.549zM340.95 27.19h8.548v8.548h-8.549zM350.91 17.183h8.55v8.547h-8.55zM350.91 27.19h8.55v8.548h-8.55zM340.95 37.183h8.548v8.547h-8.549zM340.95 47.19h8.548v8.548h-8.549zM350.91 37.183h8.55v8.547h-8.55zM350.91 47.19h8.55v8.548h-8.55zM340.95 57.183h8.548v8.547h-8.549zM340.95 67.19h8.548v8.548h-8.549zM350.91 57.183h8.55v8.547h-8.55zM350.91 67.19h8.55v8.548h-8.55zM340.95 77.183h8.548v8.547h-8.549z"/><path fill="#2faf30" d="M350.91 77.183h8.55v8.547h-8.55z"/><path fill="#ebebeb" d="M360.95 17.183h8.548v8.547h-8.549zM360.95 27.19h8.548v8.548h-8.549zM370.91 17.183h8.55v8.547h-8.55zM370.91 27.19h8.55v8.548h-8.55zM360.95 37.183h8.548v8.547h-8.549zM360.95 47.19h8.548v8.548h-8.549zM370.91 37.183h8.55v8.547h-8.55z"/><path fill="#2faf30" d="M370.91 47.19h8.55v8.548h-8.55z"/><path fill="#ebebeb" d="M360.95 57.183h8.548v8.547h-8.549zM360.95 67.19h8.548v8.548h-8.549z"/><path fill="#107618" d="M370.91 57.183h8.55v8.547h-8.55z"/><path fill="#2faf30" d="M370.91 67.19h8.55v8.548h-8.55z"/><path fill="#ebebeb" d="M360.95 77.183h8.548v8.547h-8.549zM370.91 77.183h8.55v8.547h-8.55zM380.95 17.183h8.548v8.547h-8.549zM380.95 27.19h8.548v8.548h-8.549zM390.91 17.183h8.549v8.547h-8.549zM390.91 27.19h8.549v8.548h-8.549z"/><path fill="#2faf30" d="M380.95 37.183h8.548v8.547h-8.549z"/><path fill="#ebebeb" d="M380.95 47.19h8.548v8.548h-8.549z"/><path fill="#107618" d="M390.91 37.183h8.549v8.547h-8.549z"/><path fill="#ebebeb" d="M390.91 47.19h8.549v8.548h-8.549zM380.95 57.183h8.548v8.547h-8.549zM380.95 67.19h8.548v8.548h-8.549zM390.91 57.183h8.549v8.547h-8.549zM390.91 67.19h8.549v8.548h-8.549z"/><path fill="#6ace4e" d="M380.95 77.183h8.548v8.547h-8.549z"/><path fill="#2faf30" d="M390.91 77.183h8.549v8.547h-8.549z"/><path fill="#ebebeb" d="M400.95 17.183h8.548v8.547h-8.549zM400.95 27.19h8.548v8.548h-8.549z"/><path fill="#6ace4e" d="M410.91 17.183h8.549v8.547h-8.549z"/><path fill="#cbe969" d="M410.91 27.19h8.549v8.548h-8.549z"/><path fill="#107618" d="M400.95 37.183h8.548v8.547h-8.549z"/><path fill="#ebebeb" d="M400.95 47.19h8.548v8.548h-8.549z"/><path fill="#2faf30" d="M410.91 37.183h8.549v8.547h-8.549z"/><path fill="#6ace4f" d="M410.91 47.19h8.549v8.548h-8.549z"/><path fill="#ebebeb" d="M400.95 57.183h8.548v8.547h-8.549zM400.95 67.19h8.548v8.548h-8.549z"/><path fill="#2faf30" d="M410.91 57.183h8.549v8.547h-8.549z"/><path fill="#107618" d="M410.91 67.19h8.549v8.548h-8.549z"/><path fill="#6ace4e" d="M400.95 77.183h8.548v8.547h-8.549z"/><path fill="#cbe969" d="M410.91 77.183h8.549v8.547h-8.549z"/><path fill="#ebebeb" d="M420.95 17.183h8.548v8.547h-8.549zM420.95 27.19h8.548v8.548h-8.549zM430.91 17.183h8.549v8.547h-8.549zM430.91 27.19h8.549v8.548h-8.549zM420.95 37.183h8.548v8.547h-8.549zM420.95 47.19h8.548v8.548h-8.549zM420.95 57.183h8.548v8.547h-8.549zM420.95 67.19h8.548v8.548h-8.549zM420.95 77.183h8.548v8.547h-8.549zM440.95 17.183h8.548v8.547h-8.549zM440.95 27.19h8.548v8.548h-8.549zM450.91 17.183h8.549v8.547h-8.549zM450.91 27.19h8.549v8.548h-8.549zM460.95 17.183h8.548v8.547h-8.549zM460.95 27.19h8.548v8.548h-8.549zM470.91 17.183h8.549v8.547h-8.549zM470.91 27.19h8.549v8.548h-8.549zM480.95 17.183h8.548v8.547h-8.549zM480.95 27.19h8.548v8.548h-8.549zM490.91 17.183h8.549v8.547h-8.549zM490.91 27.19h8.549v8.548h-8.549zM480.95 37.183h8.548v8.547h-8.549zM480.95 47.19h8.548v8.548h-8.549z"/><path fill="#107618" d="M490.91 47.183h8.549v8.547h-8.549z"/><path fill="#ebebeb" d="M490.91 57.19h8.549v8.548h-8.549zM480.95 57.183h8.548v8.547h-8.549zM480.95 67.19h8.548v8.548h-8.549zM490.91 67.183h8.549v8.547h-8.549zM490.91 77.19h8.549v8.548h-8.549zM480.95 77.183h8.548v8.547h-8.549zM500.949 17.183h8.549v8.547h-8.549zM500.949 27.19h8.549v8.548h-8.549zM510.91 17.183h8.549v8.547h-8.549zM510.91 27.19h8.549v8.548h-8.549zM500.949 47.183h8.549v8.547h-8.549z"/><path fill="#2faf30" d="M500.949 57.19h8.549v8.548h-8.549z"/><path fill="#ebebeb" d="M510.91 47.183h8.549v8.547h-8.549zM510.91 57.19h8.549v8.548h-8.549z"/><path fill="#107618" d="M500.949 67.183h8.549v8.547h-8.549z"/><path fill="#ebebeb" d="M500.949 77.19h8.549v8.548h-8.549zM510.91 67.183h8.549v8.547h-8.549z"/><path fill="#6ace4e" d="M510.91 77.19h8.549v8.548h-8.549z"/><path fill="#ebebeb" d="M520.949 17.183h8.549v8.547h-8.549zM520.949 27.19h8.549v8.548h-8.549zM530.91 17.183h8.549v8.547h-8.549zM530.91 27.19h8.549v8.548h-8.549zM510.949 57.19h8.549v8.548h-8.549zM520.91 47.183h8.549v8.547h-8.549z"/><path fill="#2faf30" d="M520.91 67.183h8.549v8.547h-8.549z"/><path fill="#cbe969" d="M520.91 57.183h8.549v8.547h-8.549z"/><path fill="#ebebeb" d="M520.91 77.19h8.549v8.548h-8.549zM540.949 17.183h8.549v8.547h-8.549zM540.949 27.19h8.549v8.548h-8.549z"/><path fill="#107618" d="M530.949 47.183h8.549v8.547h-8.549z"/><path fill="#2faf30" d="M490.91 37.183h8.549v8.547h-8.549z"/><path fill="#ebebeb" d="M500.949 37.183h8.549v8.547h-8.549zM510.91 37.183h8.549v8.547h-8.549zM520.91 37.183h8.549v8.547h-8.549z"/><path fill="#107618" d="M530.949 37.183h8.549v8.547h-8.549z"/><path fill="#ebebeb" d="M530.949 57.19h8.549v8.548h-8.549zM530.949 67.183h8.549v8.547h-8.549zM530.949 77.19h8.549v8.548h-8.549zM540.91 37.183h8.549v8.547h-8.549zM540.91 47.19h8.549v8.548h-8.549zM540.91 57.183h8.549v8.547h-8.549zM540.91 67.19h8.549v8.548h-8.549zM540.91 77.183h8.549v8.547h-8.549z"/><g><path fill="#2faf30" d="M40.911 37.19h8.549v8.548H40.91zM40.911 47.183h8.549v8.547H40.91z"/><path fill="#107618" d="M40.911 47.19h8.549v8.548H40.91zM40.911 57.183h8.549v8.547H40.91z"/><path fill="#2faf30" d="M40.911 67.19h8.549v8.548H40.91z"/><path fill="#107618" d="M40.911 77.183h8.549v8.547H40.91z"/><path fill="#2faf30" d="M60.911 37.19h8.549v8.548H60.91z"/><path fill="#107618" d="M50.95 47.183h8.549v8.547h-8.55z"/><path fill="#cbe969" d="M70.911 37.19h8.549v8.548H70.91z"/><path fill="#107618" d="M80.95 47.19h8.549v8.548h-8.55z"/><path fill="#2faf30" d="M80.95 57.183h8.549v8.547h-8.55z"/><path fill="#6ace4e" d="M80.95 67.19h8.549v8.548h-8.55z"/><path fill="#cbe969" d="M80.95 77.183h8.549v8.547h-8.55z"/><path fill="#6ace4e" d="M110.911 37.19h8.549v8.548h-8.549zM100.95 47.19h8.549v8.55h-8.55z"/><path fill="#107618" d="M100.95 57.183h8.549v8.547h-8.55zM100.95 67.19h8.549v8.548h-8.55z"/><path fill="#6ace4e" d="M110.911 57.183h8.549v8.547h-8.549z"/><path fill="#107618" d="M110.911 77.183h8.549v8.547h-8.549z"/><path fill="#2faf30" d="M120.95 37.19h8.548v8.548h-8.548z"/><path fill="#107618" d="M130.91 37.19h8.55v8.548h-8.55zM120.95 57.183h8.548v8.547h-8.548zM130.91 57.183h8.55v8.547h-8.55z"/><path fill="#2faf30" d="M120.95 77.183h8.548v8.547h-8.548z"/><path fill="#6ace4f" d="M130.91 77.183h8.55v8.547h-8.55z"/><path fill="#2faf30" d="M140.95 47.19h8.548v8.548h-8.548z"/><path fill="#cbe969" d="M140.95 57.183h8.548v8.547h-8.548z"/><path fill="#107618" d="M440.91 37.19h8.549v8.548h-8.549z"/><path fill="#cbe969" d="M430.95 47.19h8.548v8.55h-8.549z"/><path fill="#107618" d="M430.95 57.183h8.548v8.547h-8.549z"/><path fill="#2faf30" d="M430.95 67.19h8.548v8.548h-8.549z"/><path fill="#107618" d="M440.91 57.183h8.549v8.547h-8.549z"/><path fill="#2faf30" d="M440.91 77.183h8.549v8.547h-8.549zM450.95 37.19h8.548v8.548h-8.549z"/><path fill="#107618" d="M460.91 37.19h8.549v8.548h-8.549z"/><path fill="#2faf30" d="M450.95 57.183h8.548v8.547h-8.549z"/><path fill="#6ace4e" d="M460.91 57.183h8.549v8.547h-8.549z"/><path fill="#cbe969" d="M450.95 77.183h8.548v8.547h-8.549z"/><path fill="#6ace4e" d="M460.91 77.183h8.549v8.547h-8.549z"/><path fill="#2faf30" d="M470.95 47.19h8.548v8.548h-8.549z"/><path fill="#cbe969" d="M470.95 57.183h8.548v8.547h-8.549z"/><path fill="#2faf30" d="M160.95 17.183h8.548v8.547h-8.548z"/><path fill="#107618" d="M160.95 27.19h8.548v8.548h-8.548zM160.95 37.183h8.548v8.547h-8.548z"/><path fill="#6ace4f" d="M160.95 47.19h8.548v8.548h-8.548z"/><path fill="#2daf2f" d="M160.95 57.183h8.548v8.547h-8.548z"/><path fill="#107618" d="M160.95 67.19h8.548v8.548h-8.548z"/><path fill="#cbe969" d="M160.95 77.183h8.548v8.547h-8.548z"/><path fill="#107618" d="M190.91 37.183h8.55v8.547h-8.55z"/><path fill="#6ace4e" d="M180.95 67.19h8.548v8.548h-8.548zM190.91 57.183h8.55v8.547h-8.55z"/><path fill="#107618" d="M190.91 77.183h8.55v8.547h-8.55z"/><path fill="#2daf2f" d="M200.95 37.183h8.548v8.547h-8.548z"/><path fill="#6ace4f" d="M210.91 37.183h8.55v8.547h-8.55z"/><path fill="#107618" d="M200.95 57.183h8.548v8.547h-8.548z"/><path fill="#cbe969" d="M210.91 57.183h8.55v8.547h-8.55z"/><path fill="#2faf30" d="M200.95 77.183h8.548v8.547h-8.548z"/><path fill="#107618" d="M210.91 77.183h8.55v8.547h-8.55zM220.95 47.19h8.548v8.548h-8.549z"/><path fill="#cbe969" d="M220.95 57.183h8.548v8.547h-8.549z"/><path fill="#2faf30" d="M220.95 67.19h8.548v8.548h-8.549z"/><path fill="#6ace4f" d="M220.95 77.183h8.548v8.547h-8.549z"/><path fill="#cbe969" d="M240.95 17.183h8.548v8.547h-8.549z"/><path fill="#6ace4e" d="M240.95 27.19h8.548v8.548h-8.549z"/><path fill="#107618" d="M240.95 37.183h8.548v8.547h-8.549zM240.95 47.19h8.548v8.548h-8.549z"/><path fill="#cbe969" d="M250.91 37.183h8.55v8.547h-8.55z"/><path fill="#2faf30" d="M240.95 57.183h8.548v8.547h-8.549z"/><path fill="#107618" d="M240.95 67.19h8.548v8.548h-8.549z"/><path fill="#6ace4e" d="M240.95 77.183h8.548v8.547h-8.549z"/><path fill="#2faf30" d="M250.91 77.183h8.55v8.547h-8.55zM260.95 37.183h8.548v8.547h-8.549z"/><path fill="#107618" d="M270.91 37.183h8.55v8.547h-8.55zM260.95 77.183h8.548v8.547h-8.549z"/><path fill="#cbe969" d="M270.91 77.183h8.55v8.547h-8.55z"/><path fill="#107618" d="M280.95 47.19h8.548v8.548h-8.549z"/><path fill="#2faf30" d="M280.95 57.183h8.548v8.547h-8.549z"/><path fill="#6ace4e" d="M280.95 67.19h8.548v8.548h-8.549z"/><path fill="#107618" d="M300.95 47.19h8.548v8.548h-8.549z"/><path fill="#6ace4f" d="M310.91 37.183h8.55v8.547h-8.55z"/><path fill="#107618" d="M310.91 57.183h8.55v8.547h-8.55z"/><path fill="#cbe969" d="M300.95 77.183h8.548v8.547h-8.549z"/><path fill="#2faf30" d="M310.91 77.183h8.55v8.547h-8.55z"/><path fill="#cbe969" d="M320.95 37.183h8.548v8.547h-8.549z"/><path fill="#6ace4f" d="M330.91 37.183h8.55v8.547h-8.55z"/><path fill="#2faf30" d="M320.95 57.183h8.548v8.547h-8.549z"/><path fill="#107618" d="M330.91 67.19h8.55v8.548h-8.55z"/><path fill="#6ace4f" d="M320.95 77.183h8.548v8.547h-8.549z"/><path fill="#2faf30" d="M350.91 77.183h8.55v8.547h-8.55zM370.91 47.19h8.55v8.548h-8.55z"/><path fill="#107618" d="M370.91 57.183h8.55v8.547h-8.55z"/><path fill="#2faf30" d="M370.91 67.19h8.55v8.548h-8.55zM380.95 37.183h8.548v8.547h-8.549z"/><path fill="#107618" d="M390.91 37.183h8.549v8.547h-8.549z"/><path fill="#6ace4e" d="M380.95 77.183h8.548v8.547h-8.549z"/><path fill="#2faf30" d="M390.91 77.183h8.549v8.547h-8.549z"/><path fill="#6ace4e" d="M410.91 17.183h8.549v8.547h-8.549z"/><path fill="#cbe969" d="M410.91 27.19h8.549v8.548h-8.549z"/><path fill="#107618" d="M400.95 37.183h8.548v8.547h-8.549z"/><path fill="#2faf30" d="M410.91 37.183h8.549v8.547h-8.549z"/><path fill="#6ace4f" d="M410.91 47.19h8.549v8.548h-8.549z"/><path fill="#2faf30" d="M410.91 57.183h8.549v8.547h-8.549z"/><path fill="#107618" d="M410.91 67.19h8.549v8.548h-8.549z"/><path fill="#6ace4e" d="M400.95 77.183h8.548v8.547h-8.549z"/><path fill="#cbe969" d="M410.91 77.183h8.549v8.547h-8.549z"/><path fill="#107618" d="M490.91 47.183h8.549v8.547h-8.549z"/><path fill="#2faf30" d="M500.949 57.19h8.549v8.548h-8.549z"/><path fill="#107618" d="M500.949 67.183h8.549v8.547h-8.549z"/><path fill="#6ace4e" d="M510.91 77.19h8.549v8.548h-8.549z"/><path fill="#2faf30" d="M520.91 67.183h8.549v8.547h-8.549z"/><path fill="#cbe969" d="M520.91 57.183h8.549v8.547h-8.549z"/><path fill="#107618" d="M530.949 47.183h8.549v8.547h-8.549z"/><path fill="#2faf30" d="M490.91 37.183h8.549v8.547h-8.549z"/><path fill="#107618" d="M530.949 37.183h8.549v8.547h-8.549z"/></g><g><path fill="#ebebeb" d="M460.949 97.19h8.549v8.547h-8.549z"/></g><g><path fill="#6ace4e" d="M470.91 97.19h8.55v8.547h-8.55z"/></g><g><path fill="#6ace4e" d="M480.91 97.19h8.549v8.547h-8.55z"/></g><g><path fill="#2daf2f" d="M490.949 97.19h8.549v8.547h-8.55z"/></g><g><path fill="#107618" d="M500.91 97.182h8.549v8.547h-8.549z"/></g><g><path fill="#cbe969" d="M470.91 97.19h8.55v8.547h-8.55z"/></g><g><path d="M435.773 106.089h-3.63v-7h.82v6.26h2.81v.74zM440.76 103.789h-3.53c.01.56.16.99.45 1.29.28.3.68.45 1.18.45.56 0 1.08-.18 1.55-.55v.75c-.44.32-1.02.48-1.74.48-.71 0-1.26-.23-1.67-.68-.4-.46-.6-1.1-.6-1.92 0-.78.22-1.41.66-1.9.44-.49.99-.74 1.64-.74.66 0 1.16.21 1.52.64.36.42.54 1.01.54 1.76v.42zm-.82-.68c0-.46-.12-.82-.34-1.08-.22-.25-.52-.38-.91-.38-.38 0-.7.13-.96.4-.27.27-.43.63-.49 1.06h2.7zM441.669 105.909v-.86c.43.32.91.48 1.44.48.7 0 1.05-.23 1.05-.7 0-.13-.03-.25-.09-.34-.06-.09-.14-.17-.24-.25-.1-.07-.22-.13-.36-.19-.14-.06-.29-.11-.45-.18-.22-.08-.42-.17-.58-.26-.17-.09-.31-.19-.42-.31-.12-.11-.2-.24-.26-.38-.05-.14-.08-.31-.08-.5 0-.24.05-.44.16-.62.11-.19.25-.34.43-.46s.38-.21.61-.27c.23-.07.47-.1.71-.1.43 0 .82.08 1.16.23v.81c-.36-.24-.79-.36-1.27-.36-.15 0-.28.01-.4.05-.12.03-.22.08-.31.14a.592.592 0 00-.27.51c0 .13.02.24.07.33.05.08.12.16.21.23s.2.13.33.19c.13.05.28.11.44.18.22.08.42.17.6.26.17.09.32.19.45.3.12.11.22.24.28.39.07.15.1.32.1.52 0 .25-.05.46-.16.65-.11.18-.26.33-.44.45a2 2 0 01-.63.27c-.23.06-.48.09-.74.09-.52 0-.96-.1-1.34-.3zM445.912 105.909v-.86c.43.32.91.48 1.44.48.7 0 1.05-.23 1.05-.7 0-.13-.03-.25-.09-.34-.06-.09-.14-.17-.24-.25-.1-.07-.22-.13-.36-.19-.14-.06-.29-.11-.45-.18-.22-.08-.42-.17-.58-.26-.17-.09-.31-.19-.42-.31-.12-.11-.2-.24-.26-.38-.05-.14-.08-.31-.08-.5 0-.24.05-.44.16-.62.11-.19.25-.34.43-.46s.38-.21.61-.27c.23-.07.47-.1.71-.1.43 0 .82.08 1.16.23v.81c-.36-.24-.79-.36-1.27-.36-.15 0-.28.01-.4.05-.12.03-.22.08-.31.14a.592.592 0 00-.27.51c0 .13.02.24.07.33.05.08.12.16.21.23s.2.13.33.19c.13.05.28.11.44.18.22.08.42.17.6.26.17.09.32.19.45.3.12.11.22.24.28.39.07.15.1.32.1.52 0 .25-.05.46-.16.65-.11.18-.26.33-.44.45a2 2 0 01-.63.27c-.23.06-.48.09-.74.09-.52 0-.96-.1-1.34-.3z" fill="#586069" fill-rule="nonzero"/></g><g><path d="M527.235 106.089h-.82v-4.7c0-.37.02-.82.07-1.36h-.02c-.08.32-.15.54-.21.68l-2.39 5.38h-.4l-2.39-5.34c-.07-.16-.14-.4-.21-.72h-.02c.03.28.04.74.04 1.37v4.69h-.79v-7h1.08l2.15 4.88c.17.38.27.66.32.84h.03c.14-.38.25-.67.34-.86l2.19-4.86h1.03v7zM531.054 106.209c-.74 0-1.33-.24-1.77-.7-.44-.47-.66-1.09-.66-1.86 0-.84.23-1.5.69-1.97.46-.47 1.08-.71 1.86-.71.74 0 1.32.23 1.74.69.42.46.63 1.1.63 1.91 0 .8-.22 1.44-.68 1.92-.45.48-1.05.72-1.81.72zm.06-4.56c-.52 0-.92.17-1.22.52-.3.35-.45.83-.45 1.45 0 .59.15 1.06.45 1.4.31.34.71.51 1.22.51.52 0 .91-.16 1.19-.5.28-.33.42-.81.42-1.43 0-.63-.14-1.11-.42-1.45-.28-.33-.67-.5-1.19-.5zM537.433 101.899c-.14-.11-.34-.16-.61-.16-.34 0-.62.16-.85.48-.23.33-.35.76-.35 1.32v2.55h-.8v-5h.8v1.03h.02c.11-.35.29-.63.52-.82.24-.2.5-.3.79-.3.21 0 .37.02.48.07v.83zM542.32 103.789h-3.53c.01.56.16.99.45 1.29.28.3.68.45 1.18.45.56 0 1.08-.18 1.55-.55v.75c-.44.32-1.02.48-1.74.48-.71 0-1.26-.23-1.67-.68-.4-.46-.6-1.1-.6-1.92 0-.78.22-1.41.66-1.9.44-.49.99-.74 1.64-.74.66 0 1.16.21 1.52.64.36.42.54 1.01.54 1.76v.42zm-.82-.68c0-.46-.12-.82-.34-1.08-.22-.25-.52-.38-.91-.38-.38 0-.7.13-.96.4-.27.27-.43.63-.49 1.06h2.7z" fill="#586069" fill-rule="nonzero"/></g><g><path d="M73.75 9.515c0 .747-.162 1.332-.477 1.746-.315.414-.738.62-1.27.62-.242 0-.45-.035-.602-.107v-.73c.153.118.36.172.612.172.666 0 .999-.567.999-1.692v-4.05h.738v4.04zM78.474 11.774h-.72v-.702h-.018c-.315.54-.774.81-1.386.81-.45 0-.801-.117-1.053-.36-.252-.234-.378-.55-.378-.945 0-.837.495-1.332 1.485-1.467l1.35-.19c0-.764-.306-1.142-.927-1.142-.54 0-1.035.18-1.467.549v-.738a2.81 2.81 0 011.53-.423c1.053 0 1.584.558 1.584 1.683v2.925zm-.72-2.277l-1.09.153c-.332.045-.584.126-.755.243-.171.117-.252.333-.252.63 0 .225.08.405.234.54.162.144.369.207.63.207.35 0 .648-.126.882-.37.234-.251.35-.566.35-.953v-.45zM83.567 11.774h-.72V9.209c0-.954-.351-1.431-1.044-1.431-.36 0-.657.135-.9.405-.234.27-.351.612-.351 1.026v2.565h-.72v-4.5h.72v.747h.018c.342-.567.837-.855 1.476-.855.495 0 .873.162 1.134.477.26.324.387.783.387 1.377v2.754z" fill="#586069" fill-rule="nonzero"/></g><g><path d="M32.139 11.774v-6.3h1.737c2.223 0 3.33 1.026 3.33 3.069 0 .972-.306 1.755-.927 2.349-.612.585-1.44.882-2.475.882h-1.665zm.738-5.634v4.968h.936c.828 0 1.476-.225 1.935-.666.459-.441.684-1.071.684-1.881 0-1.611-.855-2.421-2.574-2.421h-.981zM41.969 9.704h-3.177c.009.504.144.89.405 1.16.252.27.612.406 1.062.406.504 0 .972-.162 1.395-.495v.675c-.396.288-.918.432-1.566.432-.64 0-1.134-.207-1.503-.612-.36-.414-.54-.99-.54-1.728 0-.702.198-1.27.594-1.71a1.912 1.912 0 011.476-.666c.594 0 1.044.189 1.368.576.324.378.486.909.486 1.584v.378zm-.738-.612c0-.414-.108-.738-.306-.972-.198-.225-.468-.342-.82-.342-.341 0-.63.117-.863.36-.243.243-.387.567-.441.954h2.43zM46.126 11.567a2.369 2.369 0 01-1.233.315c-.64 0-1.161-.207-1.548-.63-.396-.414-.594-.954-.594-1.62 0-.747.207-1.341.639-1.791.423-.45.99-.675 1.7-.675.397 0 .739.072 1.045.225v.738a1.835 1.835 0 00-1.071-.351c-.46 0-.837.162-1.134.495-.297.324-.441.756-.441 1.296 0 .522.135.945.414 1.25.279.298.648.45 1.116.45.387 0 .756-.125 1.107-.386v.684z" fill="#586069" fill-rule="nonzero"/></g><g><path d="M11.565 35.774h-.738v-4.23c0-.333.018-.738.063-1.224h-.018a4.318 4.318 0 01-.19.612l-2.15 4.842h-.36L6.02 30.968a3.686 3.686 0 01-.19-.648h-.017c.027.252.036.666.036 1.233v4.221h-.711v-6.3h.972l1.935 4.392c.153.342.243.594.288.756h.027c.126-.342.225-.603.306-.774l1.97-4.374h.928v6.3zM15.003 35.882c-.666 0-1.197-.216-1.593-.63-.396-.423-.594-.981-.594-1.674 0-.756.207-1.35.62-1.773.415-.423.973-.64 1.675-.64.666 0 1.188.208 1.566.622.378.414.567.99.567 1.719 0 .72-.198 1.296-.612 1.728-.405.432-.945.648-1.63.648zm.054-4.104c-.468 0-.828.153-1.098.468-.27.315-.405.747-.405 1.305 0 .531.135.954.405 1.26.279.306.639.459 1.098.459.468 0 .819-.144 1.07-.45.253-.297.379-.729.379-1.287 0-.567-.126-1-.378-1.305-.252-.297-.603-.45-1.071-.45zM22.13 35.774h-.72v-2.565c0-.954-.351-1.431-1.044-1.431-.36 0-.657.135-.9.405-.234.27-.351.612-.351 1.026v2.565h-.72v-4.5h.72v.747h.018c.342-.567.837-.855 1.476-.855.495 0 .873.162 1.134.477.26.324.387.783.387 1.377v2.754z" fill="#586069" fill-rule="nonzero"/><g><path d="M12.609 49.474l-1.782 6.3h-.864l-1.296-4.608a2.795 2.795 0 01-.1-.639H8.55a2.888 2.888 0 01-.117.63l-1.305 4.617h-.855l-1.845-6.3h.81l1.34 4.833c.055.198.09.414.109.63h.018c.018-.153.063-.36.135-.63l1.395-4.833h.71l1.333 4.869c.045.162.08.36.108.585h.018c.009-.153.045-.351.117-.603l1.287-4.851h.8zM16.713 53.704h-3.177c.009.504.144.891.405 1.161.252.27.612.405 1.062.405.504 0 .972-.162 1.395-.495v.675c-.396.288-.918.432-1.566.432-.64 0-1.134-.207-1.503-.612-.36-.414-.54-.99-.54-1.728 0-.702.198-1.269.594-1.71a1.912 1.912 0 011.476-.666c.594 0 1.044.189 1.368.576.324.378.486.909.486 1.584v.378zm-.738-.612c0-.414-.108-.738-.306-.972-.198-.225-.468-.342-.82-.342-.341 0-.63.117-.863.36-.243.243-.387.567-.441.954h2.43zM21.645 55.774h-.72v-.765h-.018c-.333.576-.855.873-1.548.873-.567 0-1.017-.207-1.36-.603-.332-.405-.503-.954-.503-1.647 0-.747.189-1.341.558-1.791.378-.45.882-.675 1.503-.675.62 0 1.07.243 1.35.729h.018v-2.781h.72v6.66zm-.72-2.034v-.666c0-.36-.126-.666-.36-.918a1.222 1.222 0 00-.918-.378c-.441 0-.783.162-1.035.477-.252.324-.378.774-.378 1.341 0 .513.117.927.36 1.224.243.306.567.45.972.45s.729-.144.98-.432c.253-.288.379-.657.379-1.098z" fill="#586069" fill-rule="nonzero"/></g><g><path d="M8.334 70.14H5.877v2.178h2.277v.666H5.877v2.79h-.738v-6.3h3.195v.666zM11.784 72.003c-.126-.099-.306-.144-.55-.144-.305 0-.557.144-.764.432-.207.297-.315.684-.315 1.188v2.295h-.72v-4.5h.72v.927h.018a1.54 1.54 0 01.468-.738c.216-.18.45-.27.71-.27.19 0 .334.018.433.063v.747zM12.933 70.131a.477.477 0 01-.333-.135.434.434 0 01-.135-.333c0-.135.045-.243.135-.333a.477.477 0 01.333-.135c.135 0 .243.045.333.135.099.09.144.198.144.333a.424.424 0 01-.144.333.448.448 0 01-.333.135zm.35 5.643h-.72v-4.5h.72v4.5z" fill="#586069" fill-rule="nonzero"/></g></g><g><path d="M115.334 6.14h-2.457v2.178h2.277v.666h-2.277v2.79h-.738v-6.3h3.195v.666zM120.053 9.704h-3.177c.009.504.144.89.405 1.16.252.27.612.406 1.062.406.504 0 .972-.162 1.395-.495v.675c-.396.288-.918.432-1.566.432-.64 0-1.134-.207-1.503-.612-.36-.414-.54-.99-.54-1.728 0-.702.198-1.27.594-1.71a1.912 1.912 0 011.476-.666c.594 0 1.044.189 1.368.576.324.378.486.909.486 1.584v.378zm-.738-.612c0-.414-.108-.738-.306-.972-.198-.225-.468-.342-.82-.342-.341 0-.63.117-.863.36-.243.243-.387.567-.441.954h2.43zM121.879 11.126h-.018v.648h-.72v-6.66h.72v2.952h.018c.35-.603.873-.9 1.557-.9.576 0 1.026.207 1.359.603.324.405.486.945.486 1.62 0 .756-.18 1.359-.55 1.809-.368.459-.863.684-1.502.684-.594 0-1.044-.252-1.35-.756zm-.018-1.818v.63c0 .369.126.684.36.945.243.26.549.387.927.387.432 0 .774-.162 1.026-.495.243-.333.369-.801.369-1.395 0-.504-.117-.891-.351-1.18-.225-.287-.54-.422-.936-.422-.423 0-.756.144-1.008.432-.261.297-.387.657-.387 1.098z" fill="#586069" fill-rule="nonzero"/></g><g><path d="M158.565 11.774h-.738v-4.23c0-.333.018-.738.063-1.224h-.018a4.318 4.318 0 01-.19.612l-2.15 4.842h-.36l-2.151-4.806a3.686 3.686 0 01-.19-.648h-.017c.027.252.036.666.036 1.233v4.22h-.711v-6.3h.972l1.935 4.393c.153.342.243.594.288.756h.027c.126-.342.225-.603.306-.774l1.97-4.374h.928v6.3zM163.344 11.774h-.72v-.702h-.018c-.315.54-.774.81-1.386.81-.45 0-.801-.117-1.053-.36-.252-.234-.378-.55-.378-.945 0-.837.495-1.332 1.485-1.467l1.35-.19c0-.764-.306-1.142-.927-1.142-.54 0-1.035.18-1.467.549v-.738a2.81 2.81 0 011.53-.423c1.053 0 1.584.558 1.584 1.683v2.925zm-.72-2.277l-1.09.153c-.332.045-.584.126-.755.243-.171.117-.252.333-.252.63 0 .225.08.405.234.54.162.144.369.207.63.207.35 0 .648-.126.882-.37.234-.251.35-.566.35-.953v-.45zM167.05 8.003c-.126-.1-.306-.144-.55-.144-.305 0-.557.144-.764.432-.207.297-.315.684-.315 1.188v2.295h-.72v-4.5h.72V8.2h.018a1.54 1.54 0 01.468-.738c.216-.18.45-.27.71-.27.19 0 .334.018.433.063v.747z" fill="#586069" fill-rule="nonzero"/></g><g><path d="M197.017 11.774h-.82l-.665-1.764h-2.673l-.63 1.764h-.819l2.412-6.3h.765l2.43 6.3zm-1.728-2.43l-.99-2.682c-.036-.09-.063-.234-.1-.423h-.017a2.47 2.47 0 01-.1.423l-.98 2.682h2.187zM198.583 11.126h-.018v2.718h-.72v-6.57h.72v.792h.018c.35-.603.873-.9 1.557-.9.576 0 1.035.207 1.359.603.324.405.486.945.486 1.62 0 .756-.18 1.359-.55 1.809-.368.459-.863.684-1.502.684-.585 0-1.035-.252-1.35-.756zm-.018-1.818v.63c0 .369.126.684.36.945.243.26.549.387.927.387.432 0 .774-.162 1.026-.495.243-.333.369-.801.369-1.395 0-.504-.117-.891-.351-1.18-.225-.287-.54-.422-.936-.422-.423 0-.756.144-1.008.432-.261.297-.387.657-.387 1.098zM205.485 8.003c-.126-.1-.306-.144-.55-.144-.305 0-.557.144-.764.432-.207.297-.315.684-.315 1.188v2.295h-.72v-4.5h.72V8.2h.018a1.54 1.54 0 01.468-.738c.216-.18.45-.27.71-.27.19 0 .334.018.433.063v.747z" fill="#586069" fill-rule="nonzero"/></g><g><path d="M238.564 11.774h-.738v-4.23c0-.333.018-.738.063-1.224h-.018a4.318 4.318 0 01-.189.612l-2.15 4.842h-.36l-2.152-4.806a3.686 3.686 0 01-.189-.648h-.018c.027.252.036.666.036 1.233v4.22h-.71v-6.3h.971l1.935 4.393c.153.342.243.594.288.756h.027c.126-.342.225-.603.306-.774l1.971-4.374h.927v6.3zM243.343 11.774h-.72v-.702h-.018c-.315.54-.774.81-1.386.81-.45 0-.8-.117-1.053-.36-.252-.234-.378-.55-.378-.945 0-.837.495-1.332 1.485-1.467l1.35-.19c0-.764-.306-1.142-.927-1.142-.54 0-1.035.18-1.467.549v-.738a2.81 2.81 0 011.53-.423c1.053 0 1.584.558 1.584 1.683v2.925zm-.72-2.277l-1.089.153c-.333.045-.585.126-.756.243-.17.117-.252.333-.252.63 0 .225.081.405.234.54.162.144.37.207.63.207.351 0 .648-.126.882-.37.234-.251.351-.566.351-.953v-.45zM248.282 7.274l-2.07 5.22c-.369.936-.89 1.395-1.557 1.395-.189 0-.342-.018-.468-.054v-.648c.153.054.297.08.423.08.37 0 .64-.215.82-.647l.36-.855-1.756-4.491h.801l1.215 3.465c.018.045.045.153.09.342h.027c.018-.072.045-.18.09-.333l1.278-3.474h.747z" fill="#586069" fill-rule="nonzero"/></g><g><path d="M273.75 9.515c0 .747-.162 1.332-.477 1.746-.315.414-.738.62-1.27.62-.242 0-.45-.035-.602-.107v-.73c.153.118.36.172.612.172.666 0 .999-.567.999-1.692v-4.05h.738v4.04zM278.888 11.774h-.72v-.711h-.018c-.297.54-.756.819-1.386.819-1.071 0-1.611-.64-1.611-1.917V7.274h.72v2.574c0 .954.36 1.422 1.089 1.422.35 0 .639-.126.864-.387.234-.261.342-.594.342-1.017V7.274h.72v4.5zM284.08 11.774h-.72V9.209c0-.954-.35-1.431-1.043-1.431-.36 0-.657.135-.9.405-.234.27-.351.612-.351 1.026v2.565h-.72v-4.5h.72v.747h.018c.342-.567.837-.855 1.476-.855.495 0 .873.162 1.134.477.26.324.387.783.387 1.377v2.754z" fill="#586069" fill-rule="nonzero"/></g><g><path d="M313.749 9.515c0 .747-.162 1.332-.477 1.746-.315.414-.738.62-1.27.62-.242 0-.45-.035-.602-.107v-.73c.153.118.36.172.612.172.666 0 .999-.567.999-1.692v-4.05h.738v4.04zM318.887 11.774h-.72v-.711h-.018c-.297.54-.756.819-1.386.819-1.071 0-1.611-.64-1.611-1.917V7.274h.72v2.574c0 .954.36 1.422 1.089 1.422.35 0 .639-.126.864-.387.234-.261.342-.594.342-1.017V7.274h.72v4.5z" fill="#586069" fill-rule="nonzero"/></g><g><path d="M357.016 11.774h-.819l-.666-1.764h-2.673l-.63 1.764h-.819l2.412-6.3h.765l2.43 6.3zm-1.728-2.43l-.99-2.682c-.036-.09-.063-.234-.099-.423h-.018a2.47 2.47 0 01-.099.423l-.98 2.682h2.186zM361.48 11.774h-.72v-.711h-.018c-.297.54-.756.819-1.386.819-1.07 0-1.61-.64-1.61-1.917V7.274h.72v2.574c0 .954.36 1.422 1.088 1.422.351 0 .64-.126.864-.387.234-.261.342-.594.342-1.017V7.274h.72v4.5zM366.781 11.414c0 1.656-.792 2.475-2.376 2.475-.558 0-1.044-.1-1.458-.315v-.72c.504.279.99.423 1.45.423 1.106 0 1.664-.585 1.664-1.764v-.495h-.018c-.342.576-.864.864-1.548.864-.558 0-1.008-.198-1.35-.603-.342-.396-.513-.936-.513-1.611 0-.765.18-1.368.55-1.827.368-.45.872-.675 1.511-.675.603 0 1.053.243 1.35.729h.018v-.621h.72v4.14zm-.72-1.674v-.666c0-.36-.126-.666-.369-.918a1.182 1.182 0 00-.9-.378c-.44 0-.792.162-1.044.486-.252.324-.378.774-.378 1.359 0 .495.117.9.36 1.197.243.306.567.45.963.45.405 0 .73-.144.981-.432.261-.28.387-.648.387-1.098z" fill="#586069" fill-rule="nonzero"/></g><g><path d="M391.842 11.522v-.873c.099.09.216.17.36.234.135.072.288.135.44.18.154.054.307.09.46.117.153.027.297.036.432.036.459 0 .792-.081 1.017-.252.225-.171.333-.414.333-.73a.866.866 0 00-.108-.44 1.384 1.384 0 00-.306-.351 4.24 4.24 0 00-.468-.297c-.18-.09-.378-.19-.585-.297a9.322 9.322 0 01-.612-.342 2.172 2.172 0 01-.504-.378 1.582 1.582 0 01-.333-.468 1.578 1.578 0 01-.117-.612c0-.288.063-.54.189-.747.126-.216.288-.387.495-.531.207-.135.44-.234.702-.306.26-.063.53-.1.8-.1.622 0 1.08.073 1.36.226v.828c-.37-.252-.846-.387-1.431-.387-.162 0-.324.018-.486.054-.162.036-.306.09-.432.162a1.07 1.07 0 00-.306.297.768.768 0 00-.117.44c0 .163.027.298.09.415.063.117.153.225.27.324.117.099.252.189.423.279.17.09.36.189.585.297.225.117.44.234.639.35.207.127.378.262.53.415.154.144.28.315.37.495a1.5 1.5 0 01.126.62c0 .316-.054.577-.18.793a1.448 1.448 0 01-.495.522 2.197 2.197 0 01-.711.297c-.27.054-.55.09-.855.09-.1 0-.216-.01-.37-.027-.143-.018-.296-.036-.44-.072a3.505 3.505 0 01-.441-.108 1.841 1.841 0 01-.324-.153zM400.439 9.704h-3.177c.009.504.144.89.405 1.16.252.27.612.406 1.062.406.504 0 .972-.162 1.395-.495v.675c-.396.288-.918.432-1.566.432-.64 0-1.134-.207-1.503-.612-.36-.414-.54-.99-.54-1.728 0-.702.198-1.27.594-1.71a1.912 1.912 0 011.476-.666c.594 0 1.044.189 1.368.576.324.378.486.909.486 1.584v.378zm-.738-.612c0-.414-.108-.738-.306-.972-.198-.225-.468-.342-.82-.342-.341 0-.63.117-.863.36-.243.243-.387.567-.441.954h2.43zM402.266 11.126h-.018v2.718h-.72v-6.57h.72v.792h.018c.35-.603.873-.9 1.557-.9.576 0 1.035.207 1.359.603.324.405.486.945.486 1.62 0 .756-.18 1.359-.55 1.809-.368.459-.863.684-1.502.684-.585 0-1.035-.252-1.35-.756zm-.018-1.818v.63c0 .369.126.684.36.945.243.26.549.387.927.387.432 0 .774-.162 1.026-.495.243-.333.369-.801.369-1.395 0-.504-.117-.891-.351-1.18-.225-.287-.54-.422-.936-.422-.423 0-.756.144-1.008.432-.261.297-.387.657-.387 1.098z" fill="#586069" fill-rule="nonzero"/></g><g><path d="M434.676 11.882c-.891 0-1.611-.297-2.151-.882-.531-.594-.801-1.36-.801-2.304 0-1.008.27-1.818.819-2.421.549-.603 1.296-.91 2.241-.91.864 0 1.566.298 2.097.883.53.585.8 1.35.8 2.295 0 1.026-.27 1.845-.818 2.439-.54.603-1.27.9-2.187.9zm.054-5.85c-.666 0-1.197.243-1.611.72-.414.477-.621 1.107-.621 1.88 0 .775.198 1.405.603 1.873.405.477.927.71 1.575.71.693 0 1.233-.224 1.638-.674.396-.45.594-1.08.594-1.9 0-.827-.19-1.475-.576-1.925-.387-.45-.927-.684-1.602-.684zM441.893 11.567a2.369 2.369 0 01-1.233.315c-.64 0-1.161-.207-1.548-.63-.396-.414-.594-.954-.594-1.62 0-.747.207-1.341.639-1.791.423-.45.99-.675 1.7-.675.397 0 .739.072 1.045.225v.738a1.835 1.835 0 00-1.071-.351c-.46 0-.837.162-1.134.495-.297.324-.441.756-.441 1.296 0 .522.135.945.414 1.25.279.298.648.45 1.116.45.387 0 .756-.125 1.107-.386v.684zM445.069 11.729c-.171.099-.396.144-.675.144-.783 0-1.18-.441-1.18-1.323V7.886h-.773v-.612h.774V6.176l.72-.234v1.332h1.134v.612h-1.134v2.538c0 .306.054.522.153.648s.27.189.513.189a.76.76 0 00.468-.144v.612z" fill="#586069" fill-rule="nonzero"/></g><g><path d="M477.214 11.774h-.9l-3.249-5.022a2.324 2.324 0 01-.198-.396h-.027c.027.135.036.423.036.864v4.554h-.738v-6.3h.954l3.16 4.94c.125.208.215.352.251.424h.018a7.035 7.035 0 01-.045-.927V5.474h.738v6.3zM480.653 11.882c-.666 0-1.197-.216-1.593-.63-.396-.423-.594-.981-.594-1.674 0-.756.207-1.35.621-1.773.414-.423.972-.64 1.674-.64.666 0 1.188.208 1.566.622.378.414.567.99.567 1.719 0 .72-.198 1.296-.612 1.728-.405.432-.945.648-1.629.648zm.054-4.104c-.468 0-.828.153-1.098.468-.27.315-.405.747-.405 1.305 0 .53.135.954.405 1.26.28.306.64.459 1.098.459.468 0 .82-.144 1.071-.45.252-.297.378-.73.378-1.287 0-.567-.126-1-.378-1.305-.252-.297-.603-.45-1.07-.45zM487.582 7.274l-1.79 4.5h-.712l-1.7-4.5h.791l1.143 3.267c.081.243.135.45.153.63h.018c.027-.225.081-.432.144-.612l1.197-3.285h.756z" fill="#586069" fill-rule="nonzero"/></g><g><path d="M512.138 11.774v-6.3h1.737c2.223 0 3.33 1.026 3.33 3.069 0 .972-.306 1.755-.927 2.349-.612.585-1.44.882-2.475.882h-1.665zm.738-5.634v4.968h.936c.828 0 1.476-.225 1.935-.666.459-.441.684-1.071.684-1.881 0-1.611-.855-2.421-2.574-2.421h-.981zM521.968 9.704h-3.177c.009.504.144.89.405 1.16.252.27.612.406 1.062.406.504 0 .972-.162 1.395-.495v.675c-.396.288-.918.432-1.566.432-.64 0-1.134-.207-1.503-.612-.36-.414-.54-.99-.54-1.728 0-.702.198-1.27.594-1.71a1.912 1.912 0 011.476-.666c.594 0 1.044.189 1.368.576.324.378.486.909.486 1.584v.378zm-.738-.612c0-.414-.108-.738-.306-.972-.198-.225-.468-.342-.82-.342-.341 0-.63.117-.863.36-.243.243-.387.567-.441.954h2.43zM526.125 11.567a2.369 2.369 0 01-1.233.315c-.64 0-1.161-.207-1.548-.63-.396-.414-.594-.954-.594-1.62 0-.747.207-1.341.639-1.791.423-.45.99-.675 1.7-.675.397 0 .739.072 1.045.225v.738a1.835 1.835 0 00-1.071-.351c-.46 0-.837.162-1.134.495-.297.324-.441.756-.441 1.296 0 .522.135.945.414 1.25.279.298.648.45 1.116.45.387 0 .756-.125 1.107-.386v.684z" fill="#586069" fill-rule="nonzero"/></g></svg>