<svg viewBox="0 0 556 114" xmlns="http://www.w3.org/2000/svg" fill-rule="evenodd" clip-rule="evenodd" stroke-linejoin="round" stroke-miterlimit="2"><path fill="none" d="M0 0h555.703v113.405H0z"/><path fill="#ebebeb" d="M30.911 17.183h9.029v9.027H30.91zM30.911 27.19h9.029v9.028H30.91zM30.911 37.183h9.029v9.027H30.91zM30.911 47.19h9.029v9.028H30.91zM30.911 57.183h9.029v9.027H30.91zM30.911 67.19h9.029v9.028H30.91zM30.911 77.183h9.029v9.027H30.91zM40.95 17.183h9.028v9.027H40.95zM40.95 27.19h9.028v9.028H40.95zM50.911 27.183h9.029v9.027H50.91z"/><path fill="#2faf30" d="M40.911 37.19h9.029v9.028H40.91z"/><path fill="#ebebeb" d="M40.95 47.19h9.028v9.028H40.95z"/><path fill="#2faf30" d="M40.911 47.183h9.029v9.027H40.91z"/><path fill="#107618" d="M40.911 47.19h9.029v9.028H40.91z"/><path fill="#ebebeb" d="M40.95 57.183h9.028v9.027H40.95zM40.95 67.19h9.028v9.028H40.95z"/><path fill="#107618" d="M40.911 57.183h9.029v9.027H40.91z"/><path fill="#2faf30" d="M40.911 67.19h9.029v9.028H40.91z"/><path fill="#ebebeb" d="M40.95 77.183h9.028v9.027H40.95z"/><path fill="#107618" d="M40.911 77.183h9.029v9.027H40.91z"/><path fill="#ebebeb" d="M60.95 27.183h9.028v9.027H60.95zM50.95 37.19h9.028v9.028H50.95zM70.911 27.183h9.029v9.027H70.91z"/><path fill="#2faf30" d="M60.911 37.19h9.029v9.028H60.91z"/><path fill="#107618" d="M50.95 47.183h9.028v9.027H50.95z"/><path fill="#ebebeb" d="M60.911 47.183h9.029v9.027H60.91z"/><path fill="#ebebeb" d="M60.911 47.19h9.029v9.028H60.91zM50.95 57.183h9.028v9.027H50.95zM50.95 67.19h9.028v9.028H50.95zM60.911 57.183h9.029v9.027H60.91zM60.911 67.19h9.029v9.028H60.91zM50.95 77.183h9.028v9.027H50.95zM60.911 77.183h9.029v9.027H60.91z"/><path fill="#cbe969" d="M70.911 37.19h9.029v9.028H70.91z"/><path fill="#ebebeb" d="M70.911 47.183h9.029v9.027H70.91z"/><path fill="#ebebeb" d="M70.911 47.19h9.029v9.028H70.91zM70.911 57.183h9.029v9.027H70.91zM70.911 67.19h9.029v9.028H70.91zM70.911 77.183h9.029v9.027H70.91zM80.95 27.183h9.028v9.027H80.95zM80.95 37.19h9.028v9.028H80.95zM90.911 27.183h9.029v9.027H90.91zM90.911 37.19h9.029v9.028H90.91z"/><path fill="#2faf30" d="M80.95 47.183h9.028v9.027H80.95z"/><path fill="#107618" d="M80.95 47.19h9.028v9.028H80.95z"/><path fill="#ebebeb" d="M90.911 47.183h9.029v9.027H90.91z"/><path fill="#ebebeb" d="M90.911 47.19h9.029v9.028H90.91z"/><path fill="#2faf30" d="M80.95 57.183h9.028v9.027H80.95z"/><path fill="#6ace4e" d="M80.95 67.19h9.028v9.028H80.95z"/><path fill="#ebebeb" d="M90.911 57.183h9.029v9.027H90.91zM90.911 67.19h9.029v9.028H90.91z"/><path fill="#cbe969" d="M80.95 77.183h9.028v9.027H80.95z"/><path fill="#ebebeb" d="M90.911 77.183h9.029v9.027H90.91zM100.95 27.183h9.028v9.027h-9.028zM100.95 37.19h9.028v9.028h-9.028zM110.911 27.183h9.029v9.027h-9.029z"/><path fill="#6ace4e" d="M110.911 37.19h9.029v9.028h-9.029z"/><path fill="#2faf30" d="M100.95 47.183h9.028v9.027h-9.028z"/><path fill="#6ace4e" d="M100.95 47.19h9.028v9.03h-9.028z"/><path fill="#ebebeb" d="M110.912 47.183h9.028v9.027h-9.028z"/><path fill="#ebebeb" d="M110.911 47.19h9.029v9.028h-9.029z"/><path fill="#107618" d="M100.95 57.183h9.028v9.027h-9.028zM100.95 67.19h9.028v9.028h-9.028z"/><path fill="#6ace4e" d="M110.911 57.183h9.029v9.027h-9.029z"/><path fill="#ebebeb" d="M110.911 67.19h9.029v9.028h-9.029zM100.95 77.183h9.028v9.027h-9.028z"/><path fill="#107618" d="M110.911 77.183h9.029v9.027h-9.029z"/><path fill="#ebebeb" d="M120.95 27.183h9.028v9.027h-9.028z"/><path fill="#2faf30" d="M120.95 37.19h9.028v9.028h-9.028z"/><path fill="#ebebeb" d="M130.91 27.183h9.03v9.027h-9.03z"/><path fill="#107618" d="M130.91 37.19h9.03v9.028h-9.03z"/><path fill="#ebebeb" d="M120.95 47.183h9.028v9.027h-9.028z"/><path fill="#ebebeb" d="M120.95 47.19h9.028v9.028h-9.028zM130.91 47.183h9.03v9.027h-9.03z"/><path fill="#ebebeb" d="M130.91 47.19h9.03v9.028h-9.03z"/><path fill="#107618" d="M120.95 57.183h9.028v9.027h-9.028z"/><path fill="#ebebeb" d="M120.95 67.19h9.028v9.028h-9.028z"/><path fill="#107618" d="M130.91 57.183h9.03v9.027h-9.03z"/><path fill="#ebebeb" d="M130.91 67.19h9.03v9.028h-9.03z"/><path fill="#2faf30" d="M120.95 77.183h9.028v9.027h-9.028z"/><path fill="#6ace4f" d="M130.91 77.183h9.03v9.027h-9.03z"/><path fill="#ebebeb" d="M140.95 27.183h9.028v9.027h-9.028zM50.911 17.183h9.029v9.027H50.91zM60.95 17.183h9.028v9.027H60.95zM70.911 17.183h9.029v9.027H70.91zM80.95 17.183h9.028v9.027H80.95zM90.911 17.183h9.029v9.027H90.91zM100.95 17.183h9.028v9.027h-9.028zM110.911 17.183h9.029v9.027h-9.029zM120.95 17.183h9.028v9.027h-9.028zM130.91 17.183h9.03v9.027h-9.03zM140.95 17.183h9.028v9.027h-9.028zM140.95 37.19h9.028v9.028h-9.028zM150.91 17.183h9.03v9.027h-9.03zM150.91 27.19h9.03v9.028h-9.03z"/><path fill="#2faf30" d="M140.95 47.183h9.028v9.027h-9.028z"/><path fill="#2faf30" d="M140.95 47.19h9.028v9.028h-9.028z"/><path fill="#ebebeb" d="M150.91 37.183h9.03v9.027h-9.03zM150.91 47.19h9.03v9.028h-9.03z"/><path fill="#cbe969" d="M140.95 57.183h9.028v9.027h-9.028z"/><path fill="#ebebeb" d="M140.95 67.19h9.028v9.028h-9.028zM150.91 57.183h9.03v9.027h-9.03zM150.91 67.19h9.03v9.028h-9.03zM140.95 77.183h9.028v9.027h-9.028zM430.95 37.19h9.028v9.028h-9.029z"/><path fill="#107618" d="M440.91 37.19h9.029v9.028h-9.029z"/><path fill="#2faf30" d="M430.95 47.183h9.028v9.027h-9.029z"/><path fill="#cbe969" d="M430.95 47.19h9.028v9.03h-9.029z"/><path fill="#ebebeb" d="M440.911 47.183h9.028v9.027h-9.028z"/><path fill="#ebebeb" d="M440.91 47.19h9.029v9.028h-9.029z"/><path fill="#107618" d="M430.95 57.183h9.028v9.027h-9.029z"/><path fill="#2faf30" d="M430.95 67.19h9.028v9.028h-9.029z"/><path fill="#107618" d="M440.91 57.183h9.029v9.027h-9.029z"/><path fill="#ebebeb" d="M440.91 67.19h9.029v9.028h-9.029zM430.95 77.183h9.028v9.027h-9.029z"/><path fill="#2faf30" d="M440.91 77.183h9.029v9.027h-9.029zM450.95 37.19h9.028v9.028h-9.029z"/><path fill="#107618" d="M460.91 37.19h9.029v9.028h-9.029z"/><path fill="#ebebeb" d="M450.95 47.183h9.028v9.027h-9.029z"/><path fill="#ebebeb" d="M450.95 47.19h9.028v9.028h-9.029zM460.91 47.183h9.029v9.027h-9.029z"/><path fill="#ebebeb" d="M460.91 47.19h9.029v9.028h-9.029z"/><path fill="#2faf30" d="M450.95 57.183h9.028v9.027h-9.029z"/><path fill="#ebebeb" d="M450.95 67.19h9.028v9.028h-9.029z"/><path fill="#6ace4e" d="M460.91 57.183h9.029v9.027h-9.029z"/><path fill="#ebebeb" d="M460.91 67.19h9.029v9.028h-9.029z"/><path fill="#cbe969" d="M450.95 77.183h9.028v9.027h-9.029z"/><path fill="#6ace4e" d="M460.91 77.183h9.029v9.027h-9.029z"/><path fill="#ebebeb" d="M470.95 37.19h9.028v9.028h-9.029z"/><path fill="#2faf30" d="M470.95 47.183h9.028v9.027h-9.029z"/><path fill="#2faf30" d="M470.95 47.19h9.028v9.028h-9.029z"/><path fill="#cbe969" d="M470.95 57.183h9.028v9.027h-9.029z"/><path fill="#ebebeb" d="M470.95 67.19h9.028v9.028h-9.029zM470.95 77.183h9.028v9.027h-9.029zM150.91 77.183h9.03v9.027h-9.03z"/><path fill="#2faf30" d="M160.95 17.183h9.028v9.027h-9.028z"/><path fill="#107618" d="M160.95 27.19h9.028v9.028h-9.028z"/><path fill="#ebebeb" d="M170.91 17.183h9.03v9.027h-9.03zM170.91 27.19h9.03v9.028h-9.03z"/><path fill="#107618" d="M160.95 37.183h9.028v9.027h-9.028z"/><path fill="#6ace4f" d="M160.95 47.19h9.028v9.028h-9.028z"/><path fill="#ebebeb" d="M170.91 37.183h9.03v9.027h-9.03zM170.91 47.19h9.03v9.028h-9.03z"/><path fill="#2daf2f" d="M160.95 57.183h9.028v9.027h-9.028z"/><path fill="#107618" d="M160.95 67.19h9.028v9.028h-9.028z"/><path fill="#ebebeb" d="M170.91 57.183h9.03v9.027h-9.03zM170.91 67.19h9.03v9.028h-9.03z"/><path fill="#cbe969" d="M160.95 77.183h9.028v9.027h-9.028z"/><path fill="#ebebeb" d="M170.91 77.183h9.03v9.027h-9.03zM180.95 17.183h9.028v9.027h-9.028zM180.95 27.19h9.028v9.028h-9.028zM190.91 17.183h9.03v9.027h-9.03zM190.91 27.19h9.03v9.028h-9.03zM180.95 37.183h9.028v9.027h-9.028zM180.95 47.19h9.028v9.028h-9.028z"/><path fill="#107618" d="M190.91 37.183h9.03v9.027h-9.03z"/><path fill="#ebebeb" d="M190.91 47.19h9.03v9.028h-9.03zM180.95 57.183h9.028v9.027h-9.028z"/><path fill="#6ace4e" d="M180.95 67.19h9.028v9.028h-9.028zM190.91 57.183h9.03v9.027h-9.03z"/><path fill="#ebebeb" d="M190.91 67.19h9.03v9.028h-9.03zM180.95 77.183h9.028v9.027h-9.028z"/><path fill="#107618" d="M190.91 77.183h9.03v9.027h-9.03z"/><path fill="#ebebeb" d="M200.95 17.183h9.028v9.027h-9.028zM200.95 27.19h9.028v9.028h-9.028zM210.91 17.183h9.03v9.027h-9.03zM210.91 27.19h9.03v9.028h-9.03z"/><path fill="#2daf2f" d="M200.95 37.183h9.028v9.027h-9.028z"/><path fill="#ebebeb" d="M200.95 47.19h9.028v9.028h-9.028z"/><path fill="#6ace4f" d="M210.91 37.183h9.03v9.027h-9.03z"/><path fill="#ebebeb" d="M210.91 47.19h9.03v9.028h-9.03z"/><path fill="#107618" d="M200.95 57.183h9.028v9.027h-9.028z"/><path fill="#ebebeb" d="M200.95 67.19h9.028v9.028h-9.028z"/><path fill="#cbe969" d="M210.91 57.183h9.03v9.027h-9.03z"/><path fill="#ebebeb" d="M210.91 67.19h9.03v9.028h-9.03z"/><path fill="#2faf30" d="M200.95 77.183h9.028v9.027h-9.028z"/><path fill="#107618" d="M210.91 77.183h9.03v9.027h-9.03z"/><path fill="#ebebeb" d="M220.95 17.183h9.028v9.027h-9.029zM220.95 27.19h9.028v9.028h-9.029zM230.91 17.183h9.03v9.027h-9.03zM230.91 27.19h9.03v9.028h-9.03zM220.95 37.183h9.028v9.027h-9.029z"/><path fill="#107618" d="M220.95 47.19h9.028v9.028h-9.029z"/><path fill="#ebebeb" d="M230.91 37.183h9.03v9.027h-9.03zM230.91 47.19h9.03v9.028h-9.03z"/><path fill="#cbe969" d="M220.95 57.183h9.028v9.027h-9.029z"/><path fill="#2faf30" d="M220.95 67.19h9.028v9.028h-9.029z"/><path fill="#ebebeb" d="M230.91 57.183h9.03v9.027h-9.03zM230.91 67.19h9.03v9.028h-9.03z"/><path fill="#6ace4f" d="M220.95 77.183h9.028v9.027h-9.029z"/><path fill="#ebebeb" d="M230.91 77.183h9.03v9.027h-9.03z"/><path fill="#cbe969" d="M240.95 17.183h9.028v9.027h-9.029z"/><path fill="#6ace4e" d="M240.95 27.19h9.028v9.028h-9.029z"/><path fill="#ebebeb" d="M250.91 17.183h9.03v9.027h-9.03zM250.91 27.19h9.03v9.028h-9.03z"/><path fill="#107618" d="M240.95 37.183h9.028v9.027h-9.029zM240.95 47.19h9.028v9.028h-9.029z"/><path fill="#cbe969" d="M250.91 37.183h9.03v9.027h-9.03z"/><path fill="#ebebeb" d="M250.91 47.19h9.03v9.028h-9.03z"/><path fill="#2faf30" d="M240.95 57.183h9.028v9.027h-9.029z"/><path fill="#107618" d="M240.95 67.19h9.028v9.028h-9.029z"/><path fill="#ebebeb" d="M250.91 57.183h9.03v9.027h-9.03zM250.91 67.19h9.03v9.028h-9.03z"/><path fill="#6ace4e" d="M240.95 77.183h9.028v9.027h-9.029z"/><path fill="#2faf30" d="M250.91 77.183h9.03v9.027h-9.03z"/><path fill="#ebebeb" d="M260.95 17.183h9.028v9.027h-9.029zM260.95 27.19h9.028v9.028h-9.029zM270.91 17.183h9.03v9.027h-9.03zM270.91 27.19h9.03v9.028h-9.03z"/><path fill="#2faf30" d="M260.95 37.183h9.028v9.027h-9.029z"/><path fill="#ebebeb" d="M260.95 47.19h9.028v9.028h-9.029z"/><path fill="#107618" d="M270.91 37.183h9.03v9.027h-9.03z"/><path fill="#ebebeb" d="M270.91 47.19h9.03v9.028h-9.03zM260.95 57.183h9.028v9.027h-9.029zM260.95 67.19h9.028v9.028h-9.029zM270.91 57.183h9.03v9.027h-9.03zM270.91 67.19h9.03v9.028h-9.03z"/><path fill="#107618" d="M260.95 77.183h9.028v9.027h-9.029z"/><path fill="#cbe969" d="M270.91 77.183h9.03v9.027h-9.03z"/><path fill="#ebebeb" d="M280.95 17.183h9.028v9.027h-9.029zM280.95 27.19h9.028v9.028h-9.029zM290.91 17.183h9.03v9.027h-9.03zM290.91 27.19h9.03v9.028h-9.03zM280.95 37.183h9.028v9.027h-9.029z"/><path fill="#107618" d="M280.95 47.19h9.028v9.028h-9.029z"/><path fill="#ebebeb" d="M290.91 37.183h9.03v9.027h-9.03zM290.91 47.19h9.03v9.028h-9.03z"/><path fill="#2faf30" d="M280.95 57.183h9.028v9.027h-9.029z"/><path fill="#6ace4e" d="M280.95 67.19h9.028v9.028h-9.029z"/><path fill="#ebebeb" d="M290.91 57.183h9.03v9.027h-9.03zM290.91 67.19h9.03v9.028h-9.03zM280.95 77.183h9.028v9.027h-9.029zM290.91 77.183h9.03v9.027h-9.03zM300.95 17.183h9.028v9.027h-9.029zM300.95 27.19h9.028v9.028h-9.029zM310.91 17.183h9.029v9.027h-9.029zM310.91 27.19h9.029v9.028h-9.029zM300.95 37.183h9.028v9.027h-9.029z"/><path fill="#107618" d="M300.95 47.19h9.028v9.028h-9.029z"/><path fill="#6ace4f" d="M310.91 37.183h9.029v9.027h-9.029z"/><path fill="#ebebeb" d="M310.91 47.19h9.029v9.028h-9.029zM300.95 57.183h9.028v9.027h-9.029zM300.95 67.19h9.028v9.028h-9.029z"/><path fill="#107618" d="M310.91 57.183h9.029v9.027h-9.029z"/><path fill="#ebebeb" d="M310.91 67.19h9.029v9.028h-9.029z"/><path fill="#cbe969" d="M300.95 77.183h9.028v9.027h-9.029z"/><path fill="#2faf30" d="M310.91 77.183h9.029v9.027h-9.029z"/><path fill="#ebebeb" d="M320.95 17.183h9.028v9.027h-9.029zM320.95 27.19h9.028v9.028h-9.029zM330.91 17.183h9.029v9.027h-9.029zM330.91 27.19h9.029v9.028h-9.029z"/><path fill="#cbe969" d="M320.95 37.183h9.028v9.027h-9.029z"/><path fill="#ebebeb" d="M320.95 47.19h9.028v9.028h-9.029z"/><path fill="#6ace4f" d="M330.91 37.183h9.029v9.027h-9.029z"/><path fill="#ebebeb" d="M330.91 47.19h9.029v9.028h-9.029z"/><path fill="#2faf30" d="M320.95 57.183h9.028v9.027h-9.029z"/><path fill="#ebebeb" d="M320.95 67.19h9.028v9.028h-9.029zM330.91 57.183h9.029v9.027h-9.029z"/><path fill="#107618" d="M330.91 67.19h9.029v9.028h-9.029z"/><path fill="#6ace4f" d="M320.95 77.183h9.028v9.027h-9.029z"/><path fill="#ebebeb" d="M330.91 77.183h9.029v9.027h-9.029zM340.95 17.183h9.028v9.027h-9.029zM340.95 27.19h9.028v9.028h-9.029zM350.91 17.183h9.029v9.027h-9.029zM350.91 27.19h9.029v9.028h-9.029zM340.95 37.183h9.028v9.027h-9.029zM340.95 47.19h9.028v9.028h-9.029zM350.91 37.183h9.029v9.027h-9.029zM350.91 47.19h9.029v9.028h-9.029zM340.95 57.183h9.028v9.027h-9.029zM340.95 67.19h9.028v9.028h-9.029zM350.91 57.183h9.029v9.027h-9.029zM350.91 67.19h9.029v9.028h-9.029zM340.95 77.183h9.028v9.027h-9.029z"/><path fill="#2faf30" d="M350.91 77.183h9.029v9.027h-9.029z"/><path fill="#ebebeb" d="M360.95 17.183h9.028v9.027h-9.029zM360.95 27.19h9.028v9.028h-9.029zM370.91 17.183h9.029v9.027h-9.029zM370.91 27.19h9.029v9.028h-9.029zM360.95 37.183h9.028v9.027h-9.029zM360.95 47.19h9.028v9.028h-9.029zM370.91 37.183h9.029v9.027h-9.029z"/><path fill="#2faf30" d="M370.91 47.19h9.029v9.028h-9.029z"/><path fill="#ebebeb" d="M360.95 57.183h9.028v9.027h-9.029zM360.95 67.19h9.028v9.028h-9.029z"/><path fill="#107618" d="M370.91 57.183h9.029v9.027h-9.029z"/><path fill="#2faf30" d="M370.91 67.19h9.029v9.028h-9.029z"/><path fill="#ebebeb" d="M360.95 77.183h9.028v9.027h-9.029zM370.91 77.183h9.029v9.027h-9.029zM380.95 17.183h9.028v9.027h-9.029zM380.95 27.19h9.028v9.028h-9.029zM390.91 17.183h9.029v9.027h-9.029zM390.91 27.19h9.029v9.028h-9.029z"/><path fill="#2faf30" d="M380.95 37.183h9.028v9.027h-9.029z"/><path fill="#ebebeb" d="M380.95 47.19h9.028v9.028h-9.029z"/><path fill="#107618" d="M390.91 37.183h9.029v9.027h-9.029z"/><path fill="#ebebeb" d="M390.91 47.19h9.029v9.028h-9.029zM380.95 57.183h9.028v9.027h-9.029zM380.95 67.19h9.028v9.028h-9.029zM390.91 57.183h9.029v9.027h-9.029zM390.91 67.19h9.029v9.028h-9.029z"/><path fill="#6ace4e" d="M380.95 77.183h9.028v9.027h-9.029z"/><path fill="#2faf30" d="M390.91 77.183h9.029v9.027h-9.029z"/><path fill="#ebebeb" d="M400.95 17.183h9.028v9.027h-9.029zM400.95 27.19h9.028v9.028h-9.029z"/><path fill="#6ace4e" d="M410.91 17.183h9.029v9.027h-9.029z"/><path fill="#cbe969" d="M410.91 27.19h9.029v9.028h-9.029z"/><path fill="#107618" d="M400.95 37.183h9.028v9.027h-9.029z"/><path fill="#ebebeb" d="M400.95 47.19h9.028v9.028h-9.029z"/><path fill="#2faf30" d="M410.91 37.183h9.029v9.027h-9.029z"/><path fill="#6ace4f" d="M410.91 47.19h9.029v9.028h-9.029z"/><path fill="#ebebeb" d="M400.95 57.183h9.028v9.027h-9.029zM400.95 67.19h9.028v9.028h-9.029z"/><path fill="#2faf30" d="M410.91 57.183h9.029v9.027h-9.029z"/><path fill="#107618" d="M410.91 67.19h9.029v9.028h-9.029z"/><path fill="#6ace4e" d="M400.95 77.183h9.028v9.027h-9.029z"/><path fill="#cbe969" d="M410.91 77.183h9.029v9.027h-9.029z"/><path fill="#ebebeb" d="M420.95 17.183h9.028v9.027h-9.029zM420.95 27.19h9.028v9.028h-9.029zM430.91 17.183h9.029v9.027h-9.029zM430.91 27.19h9.029v9.028h-9.029zM420.95 37.183h9.028v9.027h-9.029zM420.95 47.19h9.028v9.028h-9.029zM420.95 57.183h9.028v9.027h-9.029zM420.95 67.19h9.028v9.028h-9.029zM420.95 77.183h9.028v9.027h-9.029zM440.95 17.183h9.028v9.027h-9.029zM440.95 27.19h9.028v9.028h-9.029zM450.91 17.183h9.029v9.027h-9.029zM450.91 27.19h9.029v9.028h-9.029zM460.95 17.183h9.028v9.027h-9.029zM460.95 27.19h9.028v9.028h-9.029zM470.91 17.183h9.029v9.027h-9.029zM470.91 27.19h9.029v9.028h-9.029zM480.95 17.183h9.028v9.027h-9.029zM480.95 27.19h9.028v9.028h-9.029zM490.91 17.183h9.029v9.027h-9.029zM490.91 27.19h9.029v9.028h-9.029zM480.95 37.183h9.028v9.027h-9.029zM480.95 47.19h9.028v9.028h-9.029z"/><path fill="#107618" d="M490.91 47.183h9.029v9.027h-9.029z"/><path fill="#ebebeb" d="M490.91 57.19h9.029v9.028h-9.029zM480.95 57.183h9.028v9.027h-9.029zM480.95 67.19h9.028v9.028h-9.029zM490.91 67.183h9.029v9.027h-9.029zM490.91 77.19h9.029v9.028h-9.029zM480.95 77.183h9.028v9.027h-9.029zM500.949 17.183h9.029v9.027h-9.029zM500.949 27.19h9.029v9.028h-9.029zM510.91 17.183h9.029v9.027h-9.029zM510.91 27.19h9.029v9.028h-9.029zM500.949 47.183h9.029v9.027h-9.029z"/><path fill="#2faf30" d="M500.949 57.19h9.029v9.028h-9.029z"/><path fill="#ebebeb" d="M510.91 47.183h9.029v9.027h-9.029zM510.91 57.19h9.029v9.028h-9.029z"/><path fill="#107618" d="M500.949 67.183h9.029v9.027h-9.029z"/><path fill="#ebebeb" d="M500.949 77.19h9.029v9.028h-9.029zM510.91 67.183h9.029v9.027h-9.029z"/><path fill="#6ace4e" d="M510.91 77.19h9.029v9.028h-9.029z"/><path fill="#ebebeb" d="M520.949 17.183h9.029v9.027h-9.029zM520.949 27.19h9.029v9.028h-9.029zM530.91 17.183h9.029v9.027h-9.029zM530.91 27.19h9.029v9.028h-9.029zM510.949 57.19h9.029v9.028h-9.029zM520.91 47.183h9.029v9.027h-9.029z"/><path fill="#2faf30" d="M520.91 67.183h9.029v9.027h-9.029z"/><path fill="#cbe969" d="M520.91 57.183h9.029v9.027h-9.029z"/><path fill="#ebebeb" d="M520.91 77.19h9.029v9.028h-9.029zM540.949 17.183h9.029v9.027h-9.029zM540.949 27.19h9.029v9.028h-9.029z"/><path fill="#107618" d="M530.949 47.183h9.029v9.027h-9.029z"/><path fill="#2faf30" d="M490.91 37.183h9.029v9.027h-9.029z"/><path fill="#ebebeb" d="M500.949 37.183h9.029v9.027h-9.029zM510.91 37.183h9.029v9.027h-9.029zM520.91 37.183h9.029v9.027h-9.029z"/><path fill="#107618" d="M530.949 37.183h9.029v9.027h-9.029z"/><path fill="#ebebeb" d="M530.949 57.19h9.029v9.028h-9.029zM530.949 67.183h9.029v9.027h-9.029zM530.949 77.19h9.029v9.028h-9.029zM540.91 37.183h9.029v9.027h-9.029zM540.91 47.19h9.029v9.028h-9.029zM540.91 57.183h9.029v9.027h-9.029zM540.91 67.19h9.029v9.028h-9.029zM540.91 77.183h9.029v9.027h-9.029z"/><g><path fill="#2faf30" d="M40.911 37.19h9.029v9.028H40.91zM40.911 47.183h9.029v9.027H40.91z"/><path fill="#107618" d="M40.911 47.19h9.029v9.028H40.91zM40.911 57.183h9.029v9.027H40.91z"/><path fill="#2faf30" d="M40.911 67.19h9.029v9.028H40.91z"/><path fill="#107618" d="M40.911 77.183h9.029v9.027H40.91z"/><path fill="#2faf30" d="M60.911 37.19h9.029v9.028H60.91z"/><path fill="#107618" d="M50.95 47.183h9.028v9.027H50.95z"/><path fill="#cbe969" d="M70.911 37.19h9.029v9.028H70.91z"/><path fill="#107618" d="M80.95 47.19h9.028v9.028H80.95z"/><path fill="#2faf30" d="M80.95 57.183h9.028v9.027H80.95z"/><path fill="#6ace4e" d="M80.95 67.19h9.028v9.028H80.95z"/><path fill="#cbe969" d="M80.95 77.183h9.028v9.027H80.95z"/><path fill="#6ace4e" d="M110.911 37.19h9.029v9.028h-9.029zM100.95 47.19h9.028v9.03h-9.028z"/><path fill="#107618" d="M100.95 57.183h9.028v9.027h-9.028zM100.95 67.19h9.028v9.028h-9.028z"/><path fill="#6ace4e" d="M110.911 57.183h9.029v9.027h-9.029z"/><path fill="#107618" d="M110.911 77.183h9.029v9.027h-9.029z"/><path fill="#2faf30" d="M120.95 37.19h9.028v9.028h-9.028z"/><path fill="#107618" d="M130.91 37.19h9.03v9.028h-9.03zM120.95 57.183h9.028v9.027h-9.028zM130.91 57.183h9.03v9.027h-9.03z"/><path fill="#2faf30" d="M120.95 77.183h9.028v9.027h-9.028z"/><path fill="#6ace4f" d="M130.91 77.183h9.03v9.027h-9.03z"/><path fill="#2faf30" d="M140.95 47.19h9.028v9.028h-9.028z"/><path fill="#cbe969" d="M140.95 57.183h9.028v9.027h-9.028z"/><path fill="#107618" d="M440.91 37.19h9.029v9.028h-9.029z"/><path fill="#cbe969" d="M430.95 47.19h9.028v9.03h-9.029z"/><path fill="#107618" d="M430.95 57.183h9.028v9.027h-9.029z"/><path fill="#2faf30" d="M430.95 67.19h9.028v9.028h-9.029z"/><path fill="#107618" d="M440.91 57.183h9.029v9.027h-9.029z"/><path fill="#2faf30" d="M440.91 77.183h9.029v9.027h-9.029zM450.95 37.19h9.028v9.028h-9.029z"/><path fill="#107618" d="M460.91 37.19h9.029v9.028h-9.029z"/><path fill="#2faf30" d="M450.95 57.183h9.028v9.027h-9.029z"/><path fill="#6ace4e" d="M460.91 57.183h9.029v9.027h-9.029z"/><path fill="#cbe969" d="M450.95 77.183h9.028v9.027h-9.029z"/><path fill="#6ace4e" d="M460.91 77.183h9.029v9.027h-9.029z"/><path fill="#2faf30" d="M470.95 47.19h9.028v9.028h-9.029z"/><path fill="#cbe969" d="M470.95 57.183h9.028v9.027h-9.029z"/><path fill="#2faf30" d="M160.95 17.183h9.028v9.027h-9.028z"/><path fill="#107618" d="M160.95 27.19h9.028v9.028h-9.028zM160.95 37.183h9.028v9.027h-9.028z"/><path fill="#6ace4f" d="M160.95 47.19h9.028v9.028h-9.028z"/><path fill="#2daf2f" d="M160.95 57.183h9.028v9.027h-9.028z"/><path fill="#107618" d="M160.95 67.19h9.028v9.028h-9.028z"/><path fill="#cbe969" d="M160.95 77.183h9.028v9.027h-9.028z"/><path fill="#107618" d="M190.91 37.183h9.03v9.027h-9.03z"/><path fill="#6ace4e" d="M180.95 67.19h9.028v9.028h-9.028zM190.91 57.183h9.03v9.027h-9.03z"/><path fill="#107618" d="M190.91 77.183h9.03v9.027h-9.03z"/><path fill="#2daf2f" d="M200.95 37.183h9.028v9.027h-9.028z"/><path fill="#6ace4f" d="M210.91 37.183h9.03v9.027h-9.03z"/><path fill="#107618" d="M200.95 57.183h9.028v9.027h-9.028z"/><path fill="#cbe969" d="M210.91 57.183h9.03v9.027h-9.03z"/><path fill="#2faf30" d="M200.95 77.183h9.028v9.027h-9.028z"/><path fill="#107618" d="M210.91 77.183h9.03v9.027h-9.03zM220.95 47.19h9.028v9.028h-9.029z"/><path fill="#cbe969" d="M220.95 57.183h9.028v9.027h-9.029z"/><path fill="#2faf30" d="M220.95 67.19h9.028v9.028h-9.029z"/><path fill="#6ace4f" d="M220.95 77.183h9.028v9.027h-9.029z"/><path fill="#cbe969" d="M240.95 17.183h9.028v9.027h-9.029z"/><path fill="#6ace4e" d="M240.95 27.19h9.028v9.028h-9.029z"/><path fill="#107618" d="M240.95 37.183h9.028v9.027h-9.029zM240.95 47.19h9.028v9.028h-9.029z"/><path fill="#cbe969" d="M250.91 37.183h9.03v9.027h-9.03z"/><path fill="#2faf30" d="M240.95 57.183h9.028v9.027h-9.029z"/><path fill="#107618" d="M240.95 67.19h9.028v9.028h-9.029z"/><path fill="#6ace4e" d="M240.95 77.183h9.028v9.027h-9.029z"/><path fill="#2faf30" d="M250.91 77.183h9.03v9.027h-9.03zM260.95 37.183h9.028v9.027h-9.029z"/><path fill="#107618" d="M270.91 37.183h9.03v9.027h-9.03zM260.95 77.183h9.028v9.027h-9.029z"/><path fill="#cbe969" d="M270.91 77.183h9.03v9.027h-9.03z"/><path fill="#107618" d="M280.95 47.19h9.028v9.028h-9.029z"/><path fill="#2faf30" d="M280.95 57.183h9.028v9.027h-9.029z"/><path fill="#6ace4e" d="M280.95 67.19h9.028v9.028h-9.029z"/><path fill="#107618" d="M300.95 47.19h9.028v9.028h-9.029z"/><path fill="#6ace4f" d="M310.91 37.183h9.029v9.027h-9.029z"/><path fill="#107618" d="M310.91 57.183h9.029v9.027h-9.029z"/><path fill="#cbe969" d="M300.95 77.183h9.028v9.027h-9.029z"/><path fill="#2faf30" d="M310.91 77.183h9.029v9.027h-9.029z"/><path fill="#cbe969" d="M320.95 37.183h9.028v9.027h-9.029z"/><path fill="#6ace4f" d="M330.91 37.183h9.029v9.027h-9.029z"/><path fill="#2faf30" d="M320.95 57.183h9.028v9.027h-9.029z"/><path fill="#107618" d="M330.91 67.19h9.029v9.028h-9.029z"/><path fill="#6ace4f" d="M320.95 77.183h9.028v9.027h-9.029z"/><path fill="#2faf30" d="M350.91 77.183h9.029v9.027h-9.029zM370.91 47.19h9.029v9.028h-9.029z"/><path fill="#107618" d="M370.91 57.183h9.029v9.027h-9.029z"/><path fill="#2faf30" d="M370.91 67.19h9.029v9.028h-9.029zM380.95 37.183h9.028v9.027h-9.029z"/><path fill="#107618" d="M390.91 37.183h9.029v9.027h-9.029z"/><path fill="#6ace4e" d="M380.95 77.183h9.028v9.027h-9.029z"/><path fill="#2faf30" d="M390.91 77.183h9.029v9.027h-9.029z"/><path fill="#6ace4e" d="M410.91 17.183h9.029v9.027h-9.029z"/><path fill="#cbe969" d="M410.91 27.19h9.029v9.028h-9.029z"/><path fill="#107618" d="M400.95 37.183h9.028v9.027h-9.029z"/><path fill="#2faf30" d="M410.91 37.183h9.029v9.027h-9.029z"/><path fill="#6ace4f" d="M410.91 47.19h9.029v9.028h-9.029z"/><path fill="#2faf30" d="M410.91 57.183h9.029v9.027h-9.029z"/><path fill="#107618" d="M410.91 67.19h9.029v9.028h-9.029z"/><path fill="#6ace4e" d="M400.95 77.183h9.028v9.027h-9.029z"/><path fill="#cbe969" d="M410.91 77.183h9.029v9.027h-9.029z"/><path fill="#107618" d="M490.91 47.183h9.029v9.027h-9.029z"/><path fill="#2faf30" d="M500.949 57.19h9.029v9.028h-9.029z"/><path fill="#107618" d="M500.949 67.183h9.029v9.027h-9.029z"/><path fill="#6ace4e" d="M510.91 77.19h9.029v9.028h-9.029z"/><path fill="#2faf30" d="M520.91 67.183h9.029v9.027h-9.029z"/><path fill="#cbe969" d="M520.91 57.183h9.029v9.027h-9.029z"/><path fill="#107618" d="M530.949 47.183h9.029v9.027h-9.029z"/><path fill="#2faf30" d="M490.91 37.183h9.029v9.027h-9.029z"/><path fill="#107618" d="M530.949 37.183h9.029v9.027h-9.029z"/></g><g><path fill="#ebebeb" d="M460.949 97.19h9.029v9.027h-9.029z"/></g><g><path fill="#6ace4e" d="M470.91 97.19h9.029v9.027h-9.029z"/></g><g><path fill="#6ace4e" d="M480.91 97.19h9.029v9.027h-9.03z"/></g><g><path fill="#2daf2f" d="M490.949 97.19h9.028v9.027h-9.028z"/></g><g><path fill="#107618" d="M500.91 97.182h9.029v9.027h-9.029z"/></g><g><path fill="#cbe969" d="M470.91 97.19h9.029v9.027h-9.029z"/></g><g><path d="M435.773 106.089h-3.63v-7h.82v6.26h2.81v.74zM440.76 103.789h-3.53c.01.56.16.99.45 1.29.28.3.68.45 1.18.45.56 0 1.08-.18 1.55-.55v.75c-.44.32-1.02.48-1.74.48-.71 0-1.26-.23-1.67-.68-.4-.46-.6-1.1-.6-1.92 0-.78.22-1.41.66-1.9.44-.49.99-.74 1.64-.74.66 0 1.16.21 1.52.64.36.42.54 1.01.54 1.76v.42zm-.82-.68c0-.46-.12-.82-.34-1.08-.22-.25-.52-.38-.91-.38-.38 0-.7.13-.96.4-.27.27-.43.63-.49 1.06h2.7zM441.669 105.909v-.86c.43.32.91.48 1.44.48.7 0 1.05-.23 1.05-.7 0-.13-.03-.25-.09-.34-.06-.09-.14-.17-.24-.25-.1-.07-.22-.13-.36-.19-.14-.06-.29-.11-.45-.18-.22-.08-.42-.17-.58-.26-.17-.09-.31-.19-.42-.31-.12-.11-.2-.24-.26-.38-.05-.14-.08-.31-.08-.5 0-.24.05-.44.16-.62.11-.19.25-.34.43-.46s.38-.21.61-.27c.23-.07.47-.1.71-.1.43 0 .82.08 1.16.23v.81c-.36-.24-.79-.36-1.27-.36-.15 0-.28.01-.4.05-.12.03-.22.08-.31.14a.592.592 0 00-.27.51c0 .13.02.24.07.33.05.08.12.16.21.23s.2.13.33.19c.13.05.28.11.44.18.22.08.42.17.6.26.17.09.32.19.45.3.12.11.22.24.28.39.07.15.1.32.1.52 0 .25-.05.46-.16.65-.11.18-.26.33-.44.45a2 2 0 01-.63.27c-.23.06-.48.09-.74.09-.52 0-.96-.1-1.34-.3zM445.912 105.909v-.86c.43.32.91.48 1.44.48.7 0 1.05-.23 1.05-.7 0-.13-.03-.25-.09-.34-.06-.09-.14-.17-.24-.25-.1-.07-.22-.13-.36-.19-.14-.06-.29-.11-.45-.18-.22-.08-.42-.17-.58-.26-.17-.09-.31-.19-.42-.31-.12-.11-.2-.24-.26-.38-.05-.14-.08-.31-.08-.5 0-.24.05-.44.16-.62.11-.19.25-.34.43-.46s.38-.21.61-.27c.23-.07.47-.1.71-.1.43 0 .82.08 1.16.23v.81c-.36-.24-.79-.36-1.27-.36-.15 0-.28.01-.4.05-.12.03-.22.08-.31.14a.592.592 0 00-.27.51c0 .13.02.24.07.33.05.08.12.16.21.23s.2.13.33.19c.13.05.28.11.44.18.22.08.42.17.6.26.17.09.32.19.45.3.12.11.22.24.28.39.07.15.1.32.1.52 0 .25-.05.46-.16.65-.11.18-.26.33-.44.45a2 2 0 01-.63.27c-.23.06-.48.09-.74.09-.52 0-.96-.1-1.34-.3z" fill="#586069" fill-rule="nonzero"/></g><g><path d="M36.482 100.545l-.12.572h-1.398l-.34 1.606h1.506l-.143.572h-1.474l-.473 2.134h-.682l.462-2.134h-1.342l-.45 2.134h-.672l.451-2.134H30.4l.11-.572h1.42l.33-1.606h-1.486l.11-.572h1.485l.451-2.156h.682l-.45 2.156h1.352l.462-2.156h.66l-.45 2.156h1.407zm-2.189.572H32.94l-.352 1.606h1.364l.341-1.606zM38.493 105.858c0 .902-.176 1.595-.539 2.09-.363.484-.89.726-1.562.726-.253 0-.495-.055-.737-.165v-.825c.264.165.517.242.76.242.802 0 1.198-.638 1.198-1.925v-5.412h.88v5.269zm-.429-6.666a.584.584 0 01-.407-.165.53.53 0 01-.165-.407c0-.165.055-.297.165-.407a.584.584 0 01.407-.165c.165 0 .297.055.407.165.121.11.176.242.176.407a.518.518 0 01-.176.407.547.547 0 01-.407.165zM44.215 106.089h-.88v-.858h-.022c-.385.66-.946.99-1.694.99-.55 0-.979-.143-1.287-.44-.308-.286-.462-.671-.462-1.155 0-1.023.605-1.628 1.815-1.793l1.65-.231c0-.935-.374-1.397-1.133-1.397-.66 0-1.265.22-1.793.67v-.901c.54-.341 1.166-.517 1.87-.517 1.287 0 1.936.682 1.936 2.057v3.575zm-.88-2.783l-1.33.187c-.408.055-.716.154-.925.297-.209.143-.308.407-.308.77a.84.84 0 00.286.66c.198.176.451.253.77.253.43 0 .792-.154 1.078-.451.286-.308.43-.693.43-1.166v-.55zM50.196 100.589l-2.189 5.5h-.869l-2.079-5.5h.968l1.397 3.993c.1.297.165.55.187.77h.022c.033-.275.1-.528.176-.748l1.463-4.015h.924zM55.08 106.089h-.88v-.858h-.022c-.385.66-.946.99-1.694.99-.55 0-.979-.143-1.287-.44-.308-.286-.462-.671-.462-1.155 0-1.023.605-1.628 1.815-1.793l1.65-.231c0-.935-.374-1.397-1.133-1.397-.66 0-1.265.22-1.793.67v-.901c.54-.341 1.166-.517 1.87-.517 1.287 0 1.936.682 1.936 2.057v3.575zm-.88-2.783l-1.33.187c-.408.055-.716.154-.925.297-.209.143-.308.407-.308.77a.84.84 0 00.286.66c.198.176.451.253.77.253.43 0 .792-.154 1.078-.451.286-.308.43-.693.43-1.166v-.55zM56.41 105.89v-.945a2.59 2.59 0 001.583.528c.77 0 1.155-.253 1.155-.77a.677.677 0 00-.099-.374 1.236 1.236 0 00-.264-.275 2.207 2.207 0 00-.396-.21c-.154-.065-.319-.12-.495-.197a4.391 4.391 0 01-.638-.286 1.68 1.68 0 01-.462-.341 1.183 1.183 0 01-.286-.418 1.647 1.647 0 01-.088-.55c0-.264.055-.484.176-.682a1.49 1.49 0 01.473-.506c.198-.132.418-.231.671-.297a2.68 2.68 0 01.781-.11c.473 0 .902.088 1.276.253v.89c-.396-.263-.869-.395-1.397-.395-.165 0-.308.01-.44.055a1.076 1.076 0 00-.34.154.761.761 0 00-.22.242.651.651 0 00-.078.319c0 .143.022.264.077.363a.986.986 0 00.231.253c.1.077.22.143.363.209.143.055.308.12.484.198.242.088.462.187.66.286.187.099.352.209.495.33.132.12.242.264.308.429.077.165.11.352.11.572 0 .275-.055.506-.176.715a1.598 1.598 0 01-.484.495 2.2 2.2 0 01-.693.297 3.236 3.236 0 01-.814.099c-.572 0-1.056-.11-1.474-.33zM65.157 105.836c-.429.253-.924.385-1.507.385-.78 0-1.419-.253-1.892-.77-.484-.506-.726-1.166-.726-1.98 0-.913.253-1.64.781-2.19.517-.55 1.21-.824 2.08-.824.483 0 .901.088 1.275.275v.902a2.243 2.243 0 00-1.309-.43c-.56 0-1.023.199-1.386.606-.363.396-.539.924-.539 1.584 0 .638.165 1.155.506 1.529.341.363.792.55 1.364.55.473 0 .924-.154 1.353-.473v.836zM69.36 101.48c-.155-.121-.375-.176-.672-.176-.374 0-.682.176-.935.528-.253.363-.385.836-.385 1.452v2.805h-.88v-5.5h.88v1.133h.022c.121-.385.32-.693.572-.902.264-.22.55-.33.87-.33.23 0 .406.022.527.077v.913zM70.763 99.192a.584.584 0 01-.407-.165.53.53 0 01-.165-.407c0-.165.055-.297.165-.407a.584.584 0 01.407-.165c.165 0 .297.055.407.165.121.11.176.242.176.407a.518.518 0 01-.176.407.547.547 0 01-.407.165zm.43 6.897h-.88v-5.5h.88v5.5zM73.878 105.297h-.022v3.322h-.88v-8.03h.88v.968h.022c.43-.737 1.067-1.1 1.903-1.1.704 0 1.265.253 1.661.737.396.495.594 1.155.594 1.98 0 .924-.22 1.66-.67 2.21-.452.562-1.057.837-1.838.837-.715 0-1.265-.308-1.65-.924zm-.022-2.222v.77c0 .45.154.836.44 1.155.297.319.671.473 1.133.473.528 0 .946-.198 1.254-.605.297-.407.451-.98.451-1.705 0-.616-.143-1.09-.429-1.441-.275-.352-.66-.517-1.144-.517-.517 0-.924.176-1.232.528-.319.363-.473.803-.473 1.342zM81.995 106.034c-.209.12-.484.176-.825.176-.957 0-1.44-.54-1.44-1.617v-3.256h-.947v-.748h.946v-1.342l.88-.286v1.628h1.386v.748H80.61v3.102c0 .374.066.638.187.792.121.154.33.23.627.23a.93.93 0 00.572-.175v.748zM94.565 100.545l-.12.572h-1.398l-.34 1.606h1.506l-.143.572h-1.474l-.473 2.134h-.682l.462-2.134h-1.342l-.45 2.134h-.672l.451-2.134h-1.408l.11-.572h1.42l.33-1.606h-1.486l.11-.572h1.485l.451-2.156h.682l-.45 2.156h1.352l.462-2.156h.66l-.45 2.156h1.407zm-2.189.572h-1.353l-.352 1.606h1.364l.341-1.606zM98.248 106.034c-.209.12-.484.176-.825.176-.957 0-1.44-.54-1.44-1.617v-3.256h-.947v-.748h.946v-1.342l.88-.286v1.628h1.386v.748h-1.386v3.102c0 .374.066.638.187.792.121.154.33.23.627.23a.93.93 0 00.572-.175v.748zM103.801 100.589l-2.53 6.38c-.45 1.144-1.089 1.705-1.903 1.705-.23 0-.418-.022-.572-.066v-.792c.187.066.363.099.517.099.451 0 .781-.264 1.001-.792l.44-1.045-2.145-5.49h.98l1.484 4.236c.022.055.055.187.11.418h.033c.022-.088.055-.22.11-.407l1.562-4.246h.913zM105.648 105.297h-.022v3.322h-.88v-8.03h.88v.968h.022c.43-.737 1.067-1.1 1.903-1.1.704 0 1.265.253 1.661.737.396.495.594 1.155.594 1.98 0 .924-.22 1.66-.67 2.21-.452.562-1.057.837-1.838.837-.715 0-1.265-.308-1.65-.924zm-.022-2.222v.77c0 .45.154.836.44 1.155.297.319.671.473 1.133.473.528 0 .946-.198 1.254-.605.297-.407.451-.98.451-1.705 0-.616-.143-1.09-.429-1.441-.275-.352-.66-.517-1.144-.517-.517 0-.924.176-1.232.528-.319.363-.473.803-.473 1.342zM115.635 103.559h-3.883c.011.616.176 1.089.495 1.419.308.33.748.495 1.298.495.616 0 1.188-.198 1.705-.605v.825c-.484.352-1.122.528-1.914.528-.78 0-1.386-.253-1.837-.748-.44-.506-.66-1.21-.66-2.112 0-.858.242-1.551.726-2.09.484-.54 1.09-.814 1.804-.814.726 0 1.276.23 1.672.704.396.462.594 1.11.594 1.936v.462zm-.902-.748c0-.506-.132-.902-.374-1.188-.242-.275-.572-.418-1-.418-.419 0-.77.143-1.057.44-.297.297-.473.693-.539 1.166h2.97zM116.635 105.89v-.945a2.59 2.59 0 001.584.528c.77 0 1.155-.253 1.155-.77a.677.677 0 00-.099-.374 1.236 1.236 0 00-.264-.275 2.207 2.207 0 00-.396-.21c-.154-.065-.319-.12-.495-.197a4.391 4.391 0 01-.638-.286 1.68 1.68 0 01-.462-.341 1.183 1.183 0 01-.286-.418 1.647 1.647 0 01-.088-.55c0-.264.055-.484.176-.682a1.49 1.49 0 01.473-.506c.198-.132.418-.231.671-.297a2.68 2.68 0 01.781-.11c.473 0 .902.088 1.276.253v.89c-.396-.263-.869-.395-1.397-.395-.165 0-.308.01-.44.055a1.076 1.076 0 00-.34.154.761.761 0 00-.22.242.651.651 0 00-.078.319c0 .143.022.264.077.363a.986.986 0 00.231.253c.1.077.22.143.363.209.143.055.308.12.484.198.242.088.462.187.66.286.187.099.352.209.495.33.132.12.242.264.308.429.077.165.11.352.11.572 0 .275-.055.506-.176.715a1.598 1.598 0 01-.484.495 2.2 2.2 0 01-.693.297 3.236 3.236 0 01-.814.099c-.572 0-1.056-.11-1.474-.33zM125.384 105.836c-.429.253-.924.385-1.507.385-.78 0-1.419-.253-1.892-.77-.484-.506-.726-1.166-.726-1.98 0-.913.253-1.64.781-2.19.517-.55 1.21-.824 2.08-.824.483 0 .901.088 1.275.275v.902a2.243 2.243 0 00-1.309-.43c-.56 0-1.023.199-1.386.606-.363.396-.539.924-.539 1.584 0 .638.165 1.155.506 1.529.341.363.792.55 1.364.55.473 0 .924-.154 1.353-.473v.836zM129.585 101.48c-.154-.121-.374-.176-.67-.176-.375 0-.683.176-.936.528-.253.363-.385.836-.385 1.452v2.805h-.88v-5.5h.88v1.133h.022c.121-.385.32-.693.572-.902.264-.22.55-.33.87-.33.23 0 .406.022.527.077v.913zM130.99 99.192a.584.584 0 01-.408-.165.53.53 0 01-.165-.407c0-.165.055-.297.165-.407a.584.584 0 01.407-.165c.165 0 .297.055.407.165.121.11.176.242.176.407a.518.518 0 01-.176.407.547.547 0 01-.407.165zm.428 6.897h-.88v-5.5h.88v5.5zM134.104 105.297h-.022v3.322h-.88v-8.03h.88v.968h.022c.43-.737 1.067-1.1 1.903-1.1.704 0 1.265.253 1.661.737.396.495.594 1.155.594 1.98 0 .924-.22 1.66-.67 2.21-.452.562-1.057.837-1.838.837-.715 0-1.265-.308-1.65-.924zm-.022-2.222v.77c0 .45.154.836.44 1.155.297.319.671.473 1.133.473.528 0 .946-.198 1.254-.605.297-.407.451-.98.451-1.705 0-.616-.143-1.09-.429-1.441-.275-.352-.66-.517-1.144-.517-.517 0-.924.176-1.232.528-.319.363-.473.803-.473 1.342zM142.221 106.034c-.209.12-.484.176-.825.176-.957 0-1.44-.54-1.44-1.617v-3.256h-.947v-.748h.946v-1.342l.88-.286v1.628h1.386v.748h-1.386v3.102c0 .374.066.638.187.792.121.154.33.23.627.23a.93.93 0 00.572-.175v.748zM154.791 100.545l-.121.572h-1.397l-.341 1.606h1.507l-.143.572h-1.474l-.473 2.134h-.682l.462-2.134h-1.342l-.451 2.134h-.671l.451-2.134h-1.408l.11-.572h1.419l.33-1.606h-1.485l.11-.572h1.485l.451-2.156h.682l-.451 2.156h1.353l.462-2.156h.66l-.451 2.156h1.408zm-2.189.572h-1.353l-.352 1.606h1.364l.341-1.606zM158.793 101.48c-.154-.121-.374-.176-.671-.176-.374 0-.682.176-.935.528-.253.363-.385.836-.385 1.452v2.805h-.88v-5.5h.88v1.133h.022c.121-.385.319-.693.572-.902.264-.22.55-.33.869-.33.231 0 .407.022.528.077v.913zM164.168 103.559h-3.883c.011.616.176 1.089.495 1.419.308.33.748.495 1.298.495.616 0 1.188-.198 1.705-.605v.825c-.484.352-1.122.528-1.914.528-.781 0-1.386-.253-1.837-.748-.44-.506-.66-1.21-.66-2.112 0-.858.242-1.551.726-2.09.484-.54 1.089-.814 1.804-.814.726 0 1.276.23 1.672.704.396.462.594 1.11.594 1.936v.462zm-.902-.748c0-.506-.132-.902-.374-1.188-.242-.275-.572-.418-1.001-.418-.418 0-.77.143-1.056.44-.297.297-.473.693-.539 1.166h2.97zM169.436 106.089h-.88v-.858h-.022c-.385.66-.946.99-1.694.99-.55 0-.979-.143-1.287-.44-.308-.286-.462-.671-.462-1.155 0-1.023.605-1.628 1.815-1.793l1.65-.231c0-.935-.374-1.397-1.133-1.397-.66 0-1.265.22-1.793.67v-.901c.539-.341 1.166-.517 1.87-.517 1.287 0 1.936.682 1.936 2.057v3.575zm-.88-2.783l-1.331.187c-.407.055-.715.154-.924.297-.209.143-.308.407-.308.77a.84.84 0 00.286.66c.198.176.451.253.77.253.429 0 .792-.154 1.078-.451.286-.308.429-.693.429-1.166v-.55zM174.846 105.836c-.429.253-.924.385-1.507.385-.781 0-1.419-.253-1.892-.77-.484-.506-.726-1.166-.726-1.98 0-.913.253-1.64.781-2.19.517-.55 1.21-.824 2.079-.824.484 0 .902.088 1.276.275v.902a2.243 2.243 0 00-1.309-.43c-.561 0-1.023.199-1.386.606-.363.396-.539.924-.539 1.584 0 .638.165 1.155.506 1.529.341.363.792.55 1.364.55.473 0 .924-.154 1.353-.473v.836zM178.728 106.034c-.209.12-.484.176-.825.176-.957 0-1.441-.54-1.441-1.617v-3.256h-.946v-.748h.946v-1.342l.88-.286v1.628h1.386v.748h-1.386v3.102c0 .374.066.638.187.792.121.154.33.23.627.23a.93.93 0 00.572-.175v.748zM191.298 100.545l-.121.572h-1.397l-.341 1.606h1.507l-.143.572h-1.474l-.473 2.134h-.682l.462-2.134h-1.342l-.451 2.134h-.671l.451-2.134h-1.408l.11-.572h1.419l.33-1.606h-1.485l.11-.572h1.485l.451-2.156h.682l-.451 2.156h1.353l.462-2.156h.66l-.451 2.156h1.408zm-2.189.572h-1.353l-.352 1.606h1.364l.341-1.606zM199.359 100.589l-1.65 5.5h-.913l-1.133-3.938a2.307 2.307 0 01-.088-.506h-.022a2.286 2.286 0 01-.11.495l-1.232 3.949h-.88l-1.661-5.5h.924l1.133 4.136c.033.12.066.286.077.495h.044c.011-.154.044-.33.099-.506l1.265-4.125h.803l1.144 4.147c.033.132.055.297.077.495h.044c.011-.143.033-.308.088-.495l1.122-4.147h.869zM204.8 103.559h-3.883c.011.616.176 1.089.495 1.419.308.33.748.495 1.298.495.616 0 1.188-.198 1.705-.605v.825c-.484.352-1.122.528-1.914.528-.781 0-1.386-.253-1.837-.748-.44-.506-.66-1.21-.66-2.112 0-.858.242-1.551.726-2.09.484-.54 1.089-.814 1.804-.814.726 0 1.276.23 1.672.704.396.462.594 1.11.594 1.936v.462zm-.902-.748c0-.506-.132-.902-.374-1.188-.242-.275-.572-.418-1.001-.418-.418 0-.77.143-1.056.44-.297.297-.473.693-.539 1.166h2.97zM207.033 105.297h-.022v.792h-.88v-8.14h.88v3.608h.022c.429-.737 1.067-1.1 1.903-1.1.704 0 1.254.253 1.66.737.397.495.595 1.155.595 1.98 0 .924-.22 1.66-.671 2.21-.451.562-1.056.837-1.837.837-.726 0-1.276-.308-1.65-.924zm-.022-2.222v.77c0 .45.154.836.44 1.155.297.319.67.473 1.133.473.528 0 .946-.198 1.254-.605.297-.407.45-.98.45-1.705 0-.616-.142-1.09-.428-1.441-.275-.352-.66-.517-1.144-.517-.517 0-.924.176-1.232.528-.319.363-.473.803-.473 1.342zM217.294 106.089h-.88v-.935h-.022c-.407.704-1.045 1.067-1.892 1.067-.693 0-1.243-.253-1.661-.737-.407-.495-.616-1.166-.616-2.013 0-.913.23-1.64.682-2.19.462-.55 1.078-.824 1.837-.824.759 0 1.309.297 1.65.89h.022V97.95h.88v8.14zm-.88-2.486v-.814c0-.44-.154-.814-.44-1.122a1.493 1.493 0 00-1.122-.462c-.54 0-.957.198-1.265.583-.308.396-.462.946-.462 1.639 0 .627.143 1.133.44 1.496.297.374.693.55 1.188.55s.89-.176 1.199-.528c.308-.352.462-.803.462-1.342zM223.497 103.559h-3.883c.01.616.176 1.089.495 1.419.308.33.748.495 1.298.495.616 0 1.188-.198 1.705-.605v.825c-.484.352-1.122.528-1.914.528-.781 0-1.386-.253-1.837-.748-.44-.506-.66-1.21-.66-2.112 0-.858.242-1.551.726-2.09.484-.54 1.089-.814 1.804-.814.726 0 1.276.23 1.672.704.396.462.594 1.11.594 1.936v.462zm-.902-.748c0-.506-.132-.902-.374-1.188-.242-.275-.572-.418-1.001-.418-.418 0-.77.143-1.056.44-.297.297-.473.693-.54 1.166h2.97zM229.15 100.589l-2.19 5.5h-.868l-2.08-5.5h.969l1.397 3.993c.099.297.165.55.187.77h.022c.033-.275.099-.528.176-.748l1.463-4.015h.924z" fill="#586069" fill-rule="nonzero"/></g><g><path d="M527.235 106.089h-.82v-4.7c0-.37.02-.82.07-1.36h-.02c-.08.32-.15.54-.21.68l-2.39 5.38h-.4l-2.39-5.34c-.07-.16-.14-.4-.21-.72h-.02c.03.28.04.74.04 1.37v4.69h-.79v-7h1.08l2.15 4.88c.17.38.27.66.32.84h.03c.14-.38.25-.67.34-.86l2.19-4.86h1.03v7zM531.054 106.209c-.74 0-1.33-.24-1.77-.7-.44-.47-.66-1.09-.66-1.86 0-.84.23-1.5.69-1.97.46-.47 1.08-.71 1.86-.71.74 0 1.32.23 1.74.69.42.46.63 1.1.63 1.91 0 .8-.22 1.44-.68 1.92-.45.48-1.05.72-1.81.72zm.06-4.56c-.52 0-.92.17-1.22.52-.3.35-.45.83-.45 1.45 0 .59.15 1.06.45 1.4.31.34.71.51 1.22.51.52 0 .91-.16 1.19-.5.28-.33.42-.81.42-1.43 0-.63-.14-1.11-.42-1.45-.28-.33-.67-.5-1.19-.5zM537.433 101.899c-.14-.11-.34-.16-.61-.16-.34 0-.62.16-.85.48-.23.33-.35.76-.35 1.32v2.55h-.8v-5h.8v1.03h.02c.11-.35.29-.63.52-.82.24-.2.5-.3.79-.3.21 0 .37.02.48.07v.83zM542.32 103.789h-3.53c.01.56.16.99.45 1.29.28.3.68.45 1.18.45.56 0 1.08-.18 1.55-.55v.75c-.44.32-1.02.48-1.74.48-.71 0-1.26-.23-1.67-.68-.4-.46-.6-1.1-.6-1.92 0-.78.22-1.41.66-1.9.44-.49.99-.74 1.64-.74.66 0 1.16.21 1.52.64.36.42.54 1.01.54 1.76v.42zm-.82-.68c0-.46-.12-.82-.34-1.08-.22-.25-.52-.38-.91-.38-.38 0-.7.13-.96.4-.27.27-.43.63-.49 1.06h2.7z" fill="#586069" fill-rule="nonzero"/></g><g><path d="M73.75 9.515c0 .747-.162 1.332-.477 1.746-.315.414-.738.62-1.27.62-.242 0-.45-.035-.602-.107v-.73c.153.118.36.172.612.172.666 0 .999-.567.999-1.692v-4.05h.738v4.04zM78.474 11.774h-.72v-.702h-.018c-.315.54-.774.81-1.386.81-.45 0-.801-.117-1.053-.36-.252-.234-.378-.55-.378-.945 0-.837.495-1.332 1.485-1.467l1.35-.19c0-.764-.306-1.142-.927-1.142-.54 0-1.035.18-1.467.549v-.738a2.81 2.81 0 011.53-.423c1.053 0 1.584.558 1.584 1.683v2.925zm-.72-2.277l-1.09.153c-.332.045-.584.126-.755.243-.171.117-.252.333-.252.63 0 .225.08.405.234.54.162.144.369.207.63.207.35 0 .648-.126.882-.37.234-.251.35-.566.35-.953v-.45zM83.567 11.774h-.72V9.209c0-.954-.351-1.431-1.044-1.431-.36 0-.657.135-.9.405-.234.27-.351.612-.351 1.026v2.565h-.72v-4.5h.72v.747h.018c.342-.567.837-.855 1.476-.855.495 0 .873.162 1.134.477.26.324.387.783.387 1.377v2.754z" fill="#586069" fill-rule="nonzero"/></g><g><path d="M32.139 11.774v-6.3h1.737c2.223 0 3.33 1.026 3.33 3.069 0 .972-.306 1.755-.927 2.349-.612.585-1.44.882-2.475.882h-1.665zm.738-5.634v4.968h.936c.828 0 1.476-.225 1.935-.666.459-.441.684-1.071.684-1.881 0-1.611-.855-2.421-2.574-2.421h-.981zM41.969 9.704h-3.177c.009.504.144.89.405 1.16.252.27.612.406 1.062.406.504 0 .972-.162 1.395-.495v.675c-.396.288-.918.432-1.566.432-.64 0-1.134-.207-1.503-.612-.36-.414-.54-.99-.54-1.728 0-.702.198-1.27.594-1.71a1.912 1.912 0 011.476-.666c.594 0 1.044.189 1.368.576.324.378.486.909.486 1.584v.378zm-.738-.612c0-.414-.108-.738-.306-.972-.198-.225-.468-.342-.82-.342-.341 0-.63.117-.863.36-.243.243-.387.567-.441.954h2.43zM46.126 11.567a2.369 2.369 0 01-1.233.315c-.64 0-1.161-.207-1.548-.63-.396-.414-.594-.954-.594-1.62 0-.747.207-1.341.639-1.791.423-.45.99-.675 1.7-.675.397 0 .739.072 1.045.225v.738a1.835 1.835 0 00-1.071-.351c-.46 0-.837.162-1.134.495-.297.324-.441.756-.441 1.296 0 .522.135.945.414 1.25.279.298.648.45 1.116.45.387 0 .756-.125 1.107-.386v.684z" fill="#586069" fill-rule="nonzero"/></g><g><path d="M11.565 35.774h-.738v-4.23c0-.333.018-.738.063-1.224h-.018a4.318 4.318 0 01-.19.612l-2.15 4.842h-.36L6.02 30.968a3.686 3.686 0 01-.19-.648h-.017c.027.252.036.666.036 1.233v4.221h-.711v-6.3h.972l1.935 4.392c.153.342.243.594.288.756h.027c.126-.342.225-.603.306-.774l1.97-4.374h.928v6.3zM15.003 35.882c-.666 0-1.197-.216-1.593-.63-.396-.423-.594-.981-.594-1.674 0-.756.207-1.35.62-1.773.415-.423.973-.64 1.675-.64.666 0 1.188.208 1.566.622.378.414.567.99.567 1.719 0 .72-.198 1.296-.612 1.728-.405.432-.945.648-1.63.648zm.054-4.104c-.468 0-.828.153-1.098.468-.27.315-.405.747-.405 1.305 0 .531.135.954.405 1.26.279.306.639.459 1.098.459.468 0 .819-.144 1.07-.45.253-.297.379-.729.379-1.287 0-.567-.126-1-.378-1.305-.252-.297-.603-.45-1.071-.45zM22.13 35.774h-.72v-2.565c0-.954-.351-1.431-1.044-1.431-.36 0-.657.135-.9.405-.234.27-.351.612-.351 1.026v2.565h-.72v-4.5h.72v.747h.018c.342-.567.837-.855 1.476-.855.495 0 .873.162 1.134.477.26.324.387.783.387 1.377v2.754z" fill="#586069" fill-rule="nonzero"/><g><path d="M12.609 49.474l-1.782 6.3h-.864l-1.296-4.608a2.795 2.795 0 01-.1-.639H8.55a2.888 2.888 0 01-.117.63l-1.305 4.617h-.855l-1.845-6.3h.81l1.34 4.833c.055.198.09.414.109.63h.018c.018-.153.063-.36.135-.63l1.395-4.833h.71l1.333 4.869c.045.162.08.36.108.585h.018c.009-.153.045-.351.117-.603l1.287-4.851h.8zM16.713 53.704h-3.177c.009.504.144.891.405 1.161.252.27.612.405 1.062.405.504 0 .972-.162 1.395-.495v.675c-.396.288-.918.432-1.566.432-.64 0-1.134-.207-1.503-.612-.36-.414-.54-.99-.54-1.728 0-.702.198-1.269.594-1.71a1.912 1.912 0 011.476-.666c.594 0 1.044.189 1.368.576.324.378.486.909.486 1.584v.378zm-.738-.612c0-.414-.108-.738-.306-.972-.198-.225-.468-.342-.82-.342-.341 0-.63.117-.863.36-.243.243-.387.567-.441.954h2.43zM21.645 55.774h-.72v-.765h-.018c-.333.576-.855.873-1.548.873-.567 0-1.017-.207-1.36-.603-.332-.405-.503-.954-.503-1.647 0-.747.189-1.341.558-1.791.378-.45.882-.675 1.503-.675.62 0 1.07.243 1.35.729h.018v-2.781h.72v6.66zm-.72-2.034v-.666c0-.36-.126-.666-.36-.918a1.222 1.222 0 00-.918-.378c-.441 0-.783.162-1.035.477-.252.324-.378.774-.378 1.341 0 .513.117.927.36 1.224.243.306.567.45.972.45s.729-.144.98-.432c.253-.288.379-.657.379-1.098z" fill="#586069" fill-rule="nonzero"/></g><g><path d="M8.334 70.14H5.877v2.178h2.277v.666H5.877v2.79h-.738v-6.3h3.195v.666zM11.784 72.003c-.126-.099-.306-.144-.55-.144-.305 0-.557.144-.764.432-.207.297-.315.684-.315 1.188v2.295h-.72v-4.5h.72v.927h.018a1.54 1.54 0 01.468-.738c.216-.18.45-.27.71-.27.19 0 .334.018.433.063v.747zM12.933 70.131a.477.477 0 01-.333-.135.434.434 0 01-.135-.333c0-.135.045-.243.135-.333a.477.477 0 01.333-.135c.135 0 .243.045.333.135.099.09.144.198.144.333a.424.424 0 01-.144.333.448.448 0 01-.333.135zm.35 5.643h-.72v-4.5h.72v4.5z" fill="#586069" fill-rule="nonzero"/></g></g><g><path d="M115.334 6.14h-2.457v2.178h2.277v.666h-2.277v2.79h-.738v-6.3h3.195v.666zM120.053 9.704h-3.177c.009.504.144.89.405 1.16.252.27.612.406 1.062.406.504 0 .972-.162 1.395-.495v.675c-.396.288-.918.432-1.566.432-.64 0-1.134-.207-1.503-.612-.36-.414-.54-.99-.54-1.728 0-.702.198-1.27.594-1.71a1.912 1.912 0 011.476-.666c.594 0 1.044.189 1.368.576.324.378.486.909.486 1.584v.378zm-.738-.612c0-.414-.108-.738-.306-.972-.198-.225-.468-.342-.82-.342-.341 0-.63.117-.863.36-.243.243-.387.567-.441.954h2.43zM121.879 11.126h-.018v.648h-.72v-6.66h.72v2.952h.018c.35-.603.873-.9 1.557-.9.576 0 1.026.207 1.359.603.324.405.486.945.486 1.62 0 .756-.18 1.359-.55 1.809-.368.459-.863.684-1.502.684-.594 0-1.044-.252-1.35-.756zm-.018-1.818v.63c0 .369.126.684.36.945.243.26.549.387.927.387.432 0 .774-.162 1.026-.495.243-.333.369-.801.369-1.395 0-.504-.117-.891-.351-1.18-.225-.287-.54-.422-.936-.422-.423 0-.756.144-1.008.432-.261.297-.387.657-.387 1.098z" fill="#586069" fill-rule="nonzero"/></g><g><path d="M158.565 11.774h-.738v-4.23c0-.333.018-.738.063-1.224h-.018a4.318 4.318 0 01-.19.612l-2.15 4.842h-.36l-2.151-4.806a3.686 3.686 0 01-.19-.648h-.017c.027.252.036.666.036 1.233v4.22h-.711v-6.3h.972l1.935 4.393c.153.342.243.594.288.756h.027c.126-.342.225-.603.306-.774l1.97-4.374h.928v6.3zM163.344 11.774h-.72v-.702h-.018c-.315.54-.774.81-1.386.81-.45 0-.801-.117-1.053-.36-.252-.234-.378-.55-.378-.945 0-.837.495-1.332 1.485-1.467l1.35-.19c0-.764-.306-1.142-.927-1.142-.54 0-1.035.18-1.467.549v-.738a2.81 2.81 0 011.53-.423c1.053 0 1.584.558 1.584 1.683v2.925zm-.72-2.277l-1.09.153c-.332.045-.584.126-.755.243-.171.117-.252.333-.252.63 0 .225.08.405.234.54.162.144.369.207.63.207.35 0 .648-.126.882-.37.234-.251.35-.566.35-.953v-.45zM167.05 8.003c-.126-.1-.306-.144-.55-.144-.305 0-.557.144-.764.432-.207.297-.315.684-.315 1.188v2.295h-.72v-4.5h.72V8.2h.018a1.54 1.54 0 01.468-.738c.216-.18.45-.27.71-.27.19 0 .334.018.433.063v.747z" fill="#586069" fill-rule="nonzero"/></g><g><path d="M197.017 11.774h-.82l-.665-1.764h-2.673l-.63 1.764h-.819l2.412-6.3h.765l2.43 6.3zm-1.728-2.43l-.99-2.682c-.036-.09-.063-.234-.1-.423h-.017a2.47 2.47 0 01-.1.423l-.98 2.682h2.187zM198.583 11.126h-.018v2.718h-.72v-6.57h.72v.792h.018c.35-.603.873-.9 1.557-.9.576 0 1.035.207 1.359.603.324.405.486.945.486 1.62 0 .756-.18 1.359-.55 1.809-.368.459-.863.684-1.502.684-.585 0-1.035-.252-1.35-.756zm-.018-1.818v.63c0 .369.126.684.36.945.243.26.549.387.927.387.432 0 .774-.162 1.026-.495.243-.333.369-.801.369-1.395 0-.504-.117-.891-.351-1.18-.225-.287-.54-.422-.936-.422-.423 0-.756.144-1.008.432-.261.297-.387.657-.387 1.098zM205.485 8.003c-.126-.1-.306-.144-.55-.144-.305 0-.557.144-.764.432-.207.297-.315.684-.315 1.188v2.295h-.72v-4.5h.72V8.2h.018a1.54 1.54 0 01.468-.738c.216-.18.45-.27.71-.27.19 0 .334.018.433.063v.747z" fill="#586069" fill-rule="nonzero"/></g><g><path d="M238.564 11.774h-.738v-4.23c0-.333.018-.738.063-1.224h-.018a4.318 4.318 0 01-.189.612l-2.15 4.842h-.36l-2.152-4.806a3.686 3.686 0 01-.189-.648h-.018c.027.252.036.666.036 1.233v4.22h-.71v-6.3h.971l1.935 4.393c.153.342.243.594.288.756h.027c.126-.342.225-.603.306-.774l1.971-4.374h.927v6.3zM243.343 11.774h-.72v-.702h-.018c-.315.54-.774.81-1.386.81-.45 0-.8-.117-1.053-.36-.252-.234-.378-.55-.378-.945 0-.837.495-1.332 1.485-1.467l1.35-.19c0-.764-.306-1.142-.927-1.142-.54 0-1.035.18-1.467.549v-.738a2.81 2.81 0 011.53-.423c1.053 0 1.584.558 1.584 1.683v2.925zm-.72-2.277l-1.089.153c-.333.045-.585.126-.756.243-.17.117-.252.333-.252.63 0 .225.081.405.234.54.162.144.37.207.63.207.351 0 .648-.126.882-.37.234-.251.351-.566.351-.953v-.45zM248.282 7.274l-2.07 5.22c-.369.936-.89 1.395-1.557 1.395-.189 0-.342-.018-.468-.054v-.648c.153.054.297.08.423.08.37 0 .64-.215.82-.647l.36-.855-1.756-4.491h.801l1.215 3.465c.018.045.045.153.09.342h.027c.018-.072.045-.18.09-.333l1.278-3.474h.747z" fill="#586069" fill-rule="nonzero"/></g><g><path d="M273.75 9.515c0 .747-.162 1.332-.477 1.746-.315.414-.738.62-1.27.62-.242 0-.45-.035-.602-.107v-.73c.153.118.36.172.612.172.666 0 .999-.567.999-1.692v-4.05h.738v4.04zM278.888 11.774h-.72v-.711h-.018c-.297.54-.756.819-1.386.819-1.071 0-1.611-.64-1.611-1.917V7.274h.72v2.574c0 .954.36 1.422 1.089 1.422.35 0 .639-.126.864-.387.234-.261.342-.594.342-1.017V7.274h.72v4.5zM284.08 11.774h-.72V9.209c0-.954-.35-1.431-1.043-1.431-.36 0-.657.135-.9.405-.234.27-.351.612-.351 1.026v2.565h-.72v-4.5h.72v.747h.018c.342-.567.837-.855 1.476-.855.495 0 .873.162 1.134.477.26.324.387.783.387 1.377v2.754z" fill="#586069" fill-rule="nonzero"/></g><g><path d="M313.749 9.515c0 .747-.162 1.332-.477 1.746-.315.414-.738.62-1.27.62-.242 0-.45-.035-.602-.107v-.73c.153.118.36.172.612.172.666 0 .999-.567.999-1.692v-4.05h.738v4.04zM318.887 11.774h-.72v-.711h-.018c-.297.54-.756.819-1.386.819-1.071 0-1.611-.64-1.611-1.917V7.274h.72v2.574c0 .954.36 1.422 1.089 1.422.35 0 .639-.126.864-.387.234-.261.342-.594.342-1.017V7.274h.72v4.5zM320.345 5.114h.72v6.66h-.72z" fill="#586069" fill-rule="nonzero"/></g><g><path d="M357.016 11.774h-.819l-.666-1.764h-2.673l-.63 1.764h-.819l2.412-6.3h.765l2.43 6.3zm-1.728-2.43l-.99-2.682c-.036-.09-.063-.234-.099-.423h-.018a2.47 2.47 0 01-.099.423l-.98 2.682h2.186zM361.48 11.774h-.72v-.711h-.018c-.297.54-.756.819-1.386.819-1.07 0-1.61-.64-1.61-1.917V7.274h.72v2.574c0 .954.36 1.422 1.088 1.422.351 0 .64-.126.864-.387.234-.261.342-.594.342-1.017V7.274h.72v4.5zM366.781 11.414c0 1.656-.792 2.475-2.376 2.475-.558 0-1.044-.1-1.458-.315v-.72c.504.279.99.423 1.45.423 1.106 0 1.664-.585 1.664-1.764v-.495h-.018c-.342.576-.864.864-1.548.864-.558 0-1.008-.198-1.35-.603-.342-.396-.513-.936-.513-1.611 0-.765.18-1.368.55-1.827.368-.45.872-.675 1.511-.675.603 0 1.053.243 1.35.729h.018v-.621h.72v4.14zm-.72-1.674v-.666c0-.36-.126-.666-.369-.918a1.182 1.182 0 00-.9-.378c-.44 0-.792.162-1.044.486-.252.324-.378.774-.378 1.359 0 .495.117.9.36 1.197.243.306.567.45.963.45.405 0 .73-.144.981-.432.261-.28.387-.648.387-1.098z" fill="#586069" fill-rule="nonzero"/></g><g><path d="M391.842 11.522v-.873c.099.09.216.17.36.234.135.072.288.135.44.18.154.054.307.09.46.117.153.027.297.036.432.036.459 0 .792-.081 1.017-.252.225-.171.333-.414.333-.73a.866.866 0 00-.108-.44 1.384 1.384 0 00-.306-.351 4.24 4.24 0 00-.468-.297c-.18-.09-.378-.19-.585-.297a9.322 9.322 0 01-.612-.342 2.172 2.172 0 01-.504-.378 1.582 1.582 0 01-.333-.468 1.578 1.578 0 01-.117-.612c0-.288.063-.54.189-.747.126-.216.288-.387.495-.531.207-.135.44-.234.702-.306.26-.063.53-.1.8-.1.622 0 1.08.073 1.36.226v.828c-.37-.252-.846-.387-1.431-.387-.162 0-.324.018-.486.054-.162.036-.306.09-.432.162a1.07 1.07 0 00-.306.297.768.768 0 00-.117.44c0 .163.027.298.09.415.063.117.153.225.27.324.117.099.252.189.423.279.17.09.36.189.585.297.225.117.44.234.639.35.207.127.378.262.53.415.154.144.28.315.37.495a1.5 1.5 0 01.126.62c0 .316-.054.577-.18.793a1.448 1.448 0 01-.495.522 2.197 2.197 0 01-.711.297c-.27.054-.55.09-.855.09-.1 0-.216-.01-.37-.027-.143-.018-.296-.036-.44-.072a3.505 3.505 0 01-.441-.108 1.841 1.841 0 01-.324-.153zM400.439 9.704h-3.177c.009.504.144.89.405 1.16.252.27.612.406 1.062.406.504 0 .972-.162 1.395-.495v.675c-.396.288-.918.432-1.566.432-.64 0-1.134-.207-1.503-.612-.36-.414-.54-.99-.54-1.728 0-.702.198-1.27.594-1.71a1.912 1.912 0 011.476-.666c.594 0 1.044.189 1.368.576.324.378.486.909.486 1.584v.378zm-.738-.612c0-.414-.108-.738-.306-.972-.198-.225-.468-.342-.82-.342-.341 0-.63.117-.863.36-.243.243-.387.567-.441.954h2.43zM402.266 11.126h-.018v2.718h-.72v-6.57h.72v.792h.018c.35-.603.873-.9 1.557-.9.576 0 1.035.207 1.359.603.324.405.486.945.486 1.62 0 .756-.18 1.359-.55 1.809-.368.459-.863.684-1.502.684-.585 0-1.035-.252-1.35-.756zm-.018-1.818v.63c0 .369.126.684.36.945.243.26.549.387.927.387.432 0 .774-.162 1.026-.495.243-.333.369-.801.369-1.395 0-.504-.117-.891-.351-1.18-.225-.287-.54-.422-.936-.422-.423 0-.756.144-1.008.432-.261.297-.387.657-.387 1.098z" fill="#586069" fill-rule="nonzero"/></g><g><path d="M434.676 11.882c-.891 0-1.611-.297-2.151-.882-.531-.594-.801-1.36-.801-2.304 0-1.008.27-1.818.819-2.421.549-.603 1.296-.91 2.241-.91.864 0 1.566.298 2.097.883.53.585.8 1.35.8 2.295 0 1.026-.27 1.845-.818 2.439-.54.603-1.27.9-2.187.9zm.054-5.85c-.666 0-1.197.243-1.611.72-.414.477-.621 1.107-.621 1.88 0 .775.198 1.405.603 1.873.405.477.927.71 1.575.71.693 0 1.233-.224 1.638-.674.396-.45.594-1.08.594-1.9 0-.827-.19-1.475-.576-1.925-.387-.45-.927-.684-1.602-.684zM441.893 11.567a2.369 2.369 0 01-1.233.315c-.64 0-1.161-.207-1.548-.63-.396-.414-.594-.954-.594-1.62 0-.747.207-1.341.639-1.791.423-.45.99-.675 1.7-.675.397 0 .739.072 1.045.225v.738a1.835 1.835 0 00-1.071-.351c-.46 0-.837.162-1.134.495-.297.324-.441.756-.441 1.296 0 .522.135.945.414 1.25.279.298.648.45 1.116.45.387 0 .756-.125 1.107-.386v.684zM445.069 11.729c-.171.099-.396.144-.675.144-.783 0-1.18-.441-1.18-1.323V7.886h-.773v-.612h.774V6.176l.72-.234v1.332h1.134v.612h-1.134v2.538c0 .306.054.522.153.648s.27.189.513.189a.76.76 0 00.468-.144v.612z" fill="#586069" fill-rule="nonzero"/></g><g><path d="M477.214 11.774h-.9l-3.249-5.022a2.324 2.324 0 01-.198-.396h-.027c.027.135.036.423.036.864v4.554h-.738v-6.3h.954l3.16 4.94c.125.208.215.352.251.424h.018a7.035 7.035 0 01-.045-.927V5.474h.738v6.3zM480.653 11.882c-.666 0-1.197-.216-1.593-.63-.396-.423-.594-.981-.594-1.674 0-.756.207-1.35.621-1.773.414-.423.972-.64 1.674-.64.666 0 1.188.208 1.566.622.378.414.567.99.567 1.719 0 .72-.198 1.296-.612 1.728-.405.432-.945.648-1.629.648zm.054-4.104c-.468 0-.828.153-1.098.468-.27.315-.405.747-.405 1.305 0 .53.135.954.405 1.26.28.306.64.459 1.098.459.468 0 .82-.144 1.071-.45.252-.297.378-.73.378-1.287 0-.567-.126-1-.378-1.305-.252-.297-.603-.45-1.07-.45zM487.582 7.274l-1.79 4.5h-.712l-1.7-4.5h.791l1.143 3.267c.081.243.135.45.153.63h.018c.027-.225.081-.432.144-.612l1.197-3.285h.756z" fill="#586069" fill-rule="nonzero"/></g><g><path d="M512.138 11.774v-6.3h1.737c2.223 0 3.33 1.026 3.33 3.069 0 .972-.306 1.755-.927 2.349-.612.585-1.44.882-2.475.882h-1.665zm.738-5.634v4.968h.936c.828 0 1.476-.225 1.935-.666.459-.441.684-1.071.684-1.881 0-1.611-.855-2.421-2.574-2.421h-.981zM521.968 9.704h-3.177c.009.504.144.89.405 1.16.252.27.612.406 1.062.406.504 0 .972-.162 1.395-.495v.675c-.396.288-.918.432-1.566.432-.64 0-1.134-.207-1.503-.612-.36-.414-.54-.99-.54-1.728 0-.702.198-1.27.594-1.71a1.912 1.912 0 011.476-.666c.594 0 1.044.189 1.368.576.324.378.486.909.486 1.584v.378zm-.738-.612c0-.414-.108-.738-.306-.972-.198-.225-.468-.342-.82-.342-.341 0-.63.117-.863.36-.243.243-.387.567-.441.954h2.43zM526.125 11.567a2.369 2.369 0 01-1.233.315c-.64 0-1.161-.207-1.548-.63-.396-.414-.594-.954-.594-1.62 0-.747.207-1.341.639-1.791.423-.45.99-.675 1.7-.675.397 0 .739.072 1.045.225v.738a1.835 1.835 0 00-1.071-.351c-.46 0-.837.162-1.134.495-.297.324-.441.756-.441 1.296 0 .522.135.945.414 1.25.279.298.648.45 1.116.45.387 0 .756-.125 1.107-.386v.684z" fill="#586069" fill-rule="nonzero"/></g></svg>